<?xml version="1.0" encoding="utf-8"?>
<!-- Generator: Adobe Illustrator 24.0.0, SVG Export Plug-In . SVG Version: 6.00 Build 0)  -->
<svg version="1.1" id="Layer_1" xmlns="http://www.w3.org/2000/svg" xmlns:xlink="http://www.w3.org/1999/xlink" x="0px" y="0px"
	 viewBox="0 0 952.6 287" style="enable-background:new 0 0 952.6 287;" xml:space="preserve">
<style type="text/css">
	.st0{fill:#C3D946;}
	.st1{fill:#034247;}
	.st2{fill:#00B1CA;}
</style>
<g>
	<g>
		<path class="st0" d="M849,164.4c-0.5,1.5-1,2.8-1.5,4.2c-0.6,1.6-1.1,3-1.6,4.7c-0.4,1.4-0.7,2.9-0.8,4.4c-0.1,1,0.3,2,0.4,3
			c0.1,1.5-0.5,1.7-1.8,2.2l-1.9,0.7c-0.6,0.2-1.7,0.5-2.6,0.8c-4.9,1.4-11.1,3-13,8.7c-0.3,0.8-0.4,1.7-0.4,2.5
			c-0.1,1.6-0.1,2.1-1.4,3c-3.2,2.2-9.2,7.1-11,11.9c-0.7,1.8-0.9,3.8-0.6,5.7c0.1,0.8,0.4,1.6,0.7,2.4c0.4,1.1,1.1,1.7,0.3,2.8
			c-0.7,0.9-1.7,1.4-2.5,2.1c-1.1,1-2.4,2.1-3.7,3.1c-1.6,1.3-3.3,2.7-4.7,4c-0.8,0.8-1.5,1.7-2,2.6c-0.5,0.9-0.6,1.6-1.5,2.2
			l-0.8,0.5c0.2-0.7,0.4-1.5,0.5-2.3c0.2-1.3,0.9-3.2,1.4-4.7l0-0.1c0.4-1.2,0.8-2.3,1.1-3.4l0.4-1.3c0.6-1.9,1.4-4.6,1.5-8.3
			c0-2,0.3-4,0.5-6.4c0.3-2.5,0.7-5.6,0.8-9.4c0-1.2,0.1-2.4,0.6-3.6c0.5-1.1,1.3-1.9,1.7-3c1-2.5,1.4-5.2,1.5-7.9
			c0-1.6-0.1-3.2-0.3-4.8c-0.5-3.1,1.1-5.7,1.6-8.7c0.1-0.9-0.4-2.2,0.2-2.9c0.8-1.1,2.4-0.2,3.4-0.2h0.1l1.3,0.1
			c1.1,0.1,2,0.2,2.8,0.2h0.1c1.3,0,3.1-0.7,4.3,0.1c1.1,0.7,2.1,1.4,3.3,1.9c2.8,1.1,5.7,1.8,8.2,1.8h0.1c3.8,0,6.2-1.5,7.6-2.8
			l0.1-0.1c0.8-0.7,1.4-1.6,1.8-2.5c0.5-1,0.5-2,1.3-2.8c0.7-0.6,1.3-1.3,1.8-2.1c0.5-0.7,0.5-1.7,1.4-2c0.8-0.2,2,0,2.2,0.9
			C850.2,162.4,849.3,163.5,849,164.4 M779.5,177.8c0.2,2.5,1.8,4.6,2,7c0.1,1.3-0.8,2.8-1,4.2c-0.5,2.5-0.5,5,0.1,7.5
			c0.3,1.3,0.7,2.4,1.1,3.7c0.3,1,0.1,1.9,0.2,2.9c0.1,1.3,0.1,2.5,0,3.8c-0.2,2.6-0.7,5-1.4,7.5c-0.3,1.2-0.8,2.4-1.1,3.6l-0.2-1.9
			l-0.1-0.7c-0.2-2.9-1.6-5.6-2.9-8.3c-0.8-1.6-1.9-3.7-2-4.6c-0.1-0.6,0.1-2.8,0.2-4.4c0.2-3.5,0.4-7.5-0.1-10.6
			c-0.4-2.6-1.2-5.1-2.3-7.5c-0.7-1.5-1.7-2.9-2.6-4.3c-0.8-1.2-1.9-2.4-1.8-3.9c0.3-3.2,0.3-6.1-1-9.2c-1-2.2-2.4-4.1-4-6l-0.7-0.8
			l-1.8-1.8c-0.8-0.9-0.3-1.8,0.6-2.4c1.1-0.7,1.9-1.5,3.1-2.1l0.1,2.1c0.6,3.3,2.9,6.1,6.2,7.6c1.4,0.7,3,1,4.6,1.1
			c1.8,0.2,3.7,0.6,5.2,1.3c2.7,1.3,2,2.5,1.7,5.1c-0.2,1.6-0.3,2.6-1,4.1C779.8,172.9,779.3,175.4,779.5,177.8 M718.6,154.9
			c-0.6,1.2-1.3,2.6-2,4.5c-0.3,0.9-0.5,0.9-0.9,0.1c-0.7-1.3-1.5-2.6-2.5-4L713,155l-0.1-0.1l-1.3-2c-0.6-0.8-2-1.5-2.3-2.6
			c-0.3-1.1,1.4-2.9,1.8-3.9c0.3-0.7,0.6-1.4,1-2.2l0.1-0.3l0.5-1l0.4,1.1c0.2,2,0.8,4,1.9,5.7c0.5,0.9,1.1,1.6,1.9,2.3l1.5,1.1
			C719.2,153.8,719.1,154,718.6,154.9 M680.4,152.3c-0.9,1.9-2.1,4.6-2.1,8.1c0,1.4-0.9,0.3-1.6-0.1c-1.1-0.6-2.3-1-3.4-1.7
			c-0.9-0.6-0.8-2.2-0.8-3.3c0-0.9-0.3-2.4,0.1-3.2c0.3-0.7,0.8-1.2,1.9-2.2l2.7-2.2l0.6,0.4l0.5,0.4l1.9,1.5l0.6,1L680.4,152.3
			 M949.3,121.7l-0.1-0.1c-1.4-1.1-3.2-1.9-5.2-2.2l-1.4-0.1c-2.6,0-4.6,1-6.8,2.3l-0.1,0.1l-0.7,0.4c-1.1,0.5-2.7,1.1-5.1,2.1
			l-0.2,0.1l-1.8,0.8c-3.8,1.6-6.1,3.9-8,5.8l-1.7,1.6c-1.7,1.5-3.1,2.2-6,3.5c-2.5,1.2-4.1,2.6-5.5,3.8l-1.8,1.3l-1.4,0.4
			c-2.3,0.6-5.7,1.4-9.6,3.8c-1.1,0.6-2,0.8-4,1.3l-0.1,0c-0.9,0.2-1.8,0.7-2.7,0.7c-1,0-1-0.7-1.4-1.5l-1.2-1.8l-1.2-1.5
			c-0.7-0.9-0.9-1.1-1.1-2.2c-0.2-1.1-0.5-2.2-1-3.2c-0.6-1.1-1.7-2.1-1.8-3.4c-0.1-1.2,0.1-2.6,0.2-3.8c0.1-1.5,0.2-3.1,0.2-4.6
			c0-3.5-0.5-10-1.5-13.3c-0.9-3.3-3.3-5.5-5-7l-0.8-0.7l-0.3-1c-0.4-1.2-0.9-2.7-1.5-4.2c-0.5-1.3-1-2.5-1.5-3.7l-1.1-2.7
			c-0.3-2.4-0.9-7-2.7-10.9c-0.4-0.9-0.9-2.2-1.3-3.6c-0.8-2.4-1.7-5-3.1-7.6c-0.5-0.9-1-2-1.5-3.1c-0.8-1.8-1.7-3.7-2.9-5.2
			l-0.2-0.3c-1.6-2.1-4.1-3.3-6.7-3.3l-1.7,0.2c-3.2,0.7-5.7,3-6.5,6.2l-0.1,0.3l-0.4,1.9c-0.3,1.9,0,3.8,0.5,6.2
			c0.1,0.8,0.3,1.7,0.3,2.3c0.2,2.4,0.3,5.2,0,7.6c-0.1,1-0.6,1.4-1.2,2.1l-1.3,1.9c-1.1,2.4-1.3,5.2-1.3,10c0,3.5,0.9,6.3,1.4,8.2
			l0.4,1.5c0,3.1,0.1,13,0.4,18.3c0.3,4.3,1.8,8,3.1,10.9c0.5,1.2,1,2.4,1.3,3.3c0.6,2,0.8,4.1,0.9,6.1c0,1,0,2.1,0.1,3.1v1.6
			l-2-1.5c-0.9-0.7-1.9-1.2-2.9-1.7c-2-0.9-4.1-1.6-6.3-1.9c-1.5-0.2-1.9-1.2-3-1.9c-0.9-0.6-1.9-1.1-2.9-1.5
			c-2.2-0.9-4.6-1.4-7-1.3l-1-0.1c-1.1-0.3-2.2-1.7-3.3-2.1c-1.7-0.7-3.6-1-5.4-1h-0.1h-0.2c0.4-1.2,0.8-2.4,1.1-3.6
			c0.3-1.1,0.6-2.3,0.9-3.3c0.9-3.3,1.9-6.7,1.9-10.1c0-0.8,0.4-1.7,1-3.1c0.8-1.9,2-4.5,2.2-7.8c0.1-2.4,0-4.8-0.9-7
			c-0.4-0.9-0.9-1.8-1.4-2.5c-1.3-1.8-0.2-2.6,0.8-4.3c1.1-1.9,2.2-3.8,3.1-5.7c2.4-5,2.5-9.2,0.4-12.7c-1-1.7-3.6-4.6-8.9-4.8h-0.2
			h0c-3.6,0-7.1,1.6-9.6,4.3c-1.3,1.3-2.3,2.9-3.1,4.6c-0.6,1.3-0.9,2.8-1.7,4c-0.8,1.3-1.6,2.5-2.1,4c-0.6,1.9-2.2,3.6-3.1,5.5
			c-1.4,2.9-2,6.2-2.3,9.4c-0.1,1.5-0.1,2.8-0.7,4.2c-0.9,2.5-2.2,4.8-2.7,7.5c-0.3,1.4-0.4,2.8-0.5,4.2c-0.1,1.3,0.2,2.6-0.1,3.8
			c-0.3,1.3-1.1,2.6-1.6,3.8c-0.7,1.6-1.5,4-1.1,5.7l0,1c-0.3,1-2.2,0.5-2.3-0.4c-0.2-0.9,0.3-2.1,0.3-3c0-1.4-0.1-2.9-0.3-4.3
			c-0.4-2.8-1.3-5.7-3.1-8c-1.4-1.7-4.6-4.7-3.8-7.2c0.5-1.5,0.7-3.1,0.5-4.7c-0.7-5.2-5.7-9.5-10.1-10.6c-1-0.2-2-0.4-3-0.4
			c-1.3,0-2.4,0.2-3.3,0.4l-1.6,0.2l-0.5,0c-0.5-0.1-0.9-0.3-1.8-0.8c-1.3-0.7-2.9-1.7-5.2-1.9l-1.1-0.1c-2,0-4,0.6-5.8,1.7
			c-0.9,0.6-1.7,1.3-2.5,2.1c-0.5,0.5-1.2,1.7-2,1.6c-0.8-0.1-0.8-1.6-1-2.2l-0.6-1.6c-0.6-1.2-1.3-2.4-2.3-3.4
			c-1.7-1.8-4.1-2.9-6.6-2.9l-0.7,0c-7.1,0.6-10.9,6.5-10.5,12.1l0,0.1l0.1,1.1c0.2,1.8,0.3,2.7-0.1,4.1c-0.4,1.7-0.7,3.4-0.7,5.1
			c0,1.5,0.2,2.9,0,4.4c-0.1,1.1-0.4,2.1-0.6,3.2c-0.5,2.4,0.6,5.2,0.6,7.2c0,1.3,0.1,2.4-0.1,3.4l-0.6,1.7l-0.4-1
			c-0.2-0.8-0.1-1.6-0.2-2.3c-0.2-0.8-0.4-1.6-0.7-2.4c-1.5-4.2-2.4-9.9-5.7-13.2l-1.3-1.4c-2.1-2.3-4.5-4.8-7.9-6.1
			c-0.9-0.4-1.5-0.7-2.2-1c-2-1-3.7-1.7-7.4-2.4c-1.2-0.2-2.4-0.3-3.6-0.3h-0.1c-6.6,0-11.4,3.3-13.6,5.3c-2.2,1.9-4.2,4.2-6,6.5
			c-2.1,2.7-3.4,4.8-6.3,6.7c-3,2-5.5,4.4-7.3,7.5c-1.1,1.8-1.7,3.7-2.2,5.7c-0.2,0.7,0.1,4.6-1.2,4.4l-0.7-2.3
			c-0.1-1.4-0.4-2.9-1-4.2c-0.6-1.3-1.5-2.4-2.5-3.3c-0.7-0.6-0.4-1.6-0.2-2.4c0.2-1.3,0.3-2.6,0.3-3.9c0-0.8-0.1-1.6-0.3-2.3
			l-0.6-2.2c0-2.4,0.2-4.6-0.2-6.9c-0.6-3.7-1.9-6.9-3-9.6l0-0.1c-1-2.5-0.9-4.8-0.9-7.5c0-3.7,0-7.8-0.5-12.2
			c-0.7-6-3-14.2-4.1-18.1l-0.4-1.3c-0.4-1.6-0.1-6.4,0.2-10.4l0.1-1.8c0.3-4.8,1.1-8.6,2.6-12.1c0.5-1.1,1.2-2.9,2.1-4.9
			c2-4.7,4.8-11.2,6.2-15.1c2-5.6,0.1-9.9-0.7-11.5c-1.6-2.9-4.3-4.7-7.3-5.1l-1-0.1L634,0.3c-4.1,1.1-8.1,5.2-10.1,10.1
			c-0.8,2-1.1,2.4-3.7,5.6c-0.8,0.9-1.4,1.7-2,2.4c-1.7,1.9-3.5,3.9-4.5,7.1c-0.5,1.6-0.7,3.4-1,5.7c-0.3,2.7-0.7,6.4-1.7,8.8
			c-0.8,1.9-3,4.8-4.9,7.2c-1.7,2.3-3.2,4.3-4.1,6.1c-1.8,3.6-4.6,12.8-5.5,17.5c-0.3,1.8-0.5,3.2-0.7,4.3c-0.1,1-0.3,2.1-0.4,2.4
			c-0.8,1.9-2.6,6.7-3.3,11.4c-0.1,0.9-0.4,1.9-2.3,3.9l-0.7,0.8c-1.6,1.8-3,3.8-4.1,5.8c-0.8,1.5-1.1,3.4-2.3,4.7
			c-0.8,1-0.9,0.9-1.9,0c-0.9-0.8-2-2-2.1-3.3c-0.2-1.6,0.2-3.2,0.1-4.9c-0.2-2.2-0.8-4.4-1.9-6.3c-1.6-2.7-1.6-4.7-1.3-7.8
			c0.1-0.9,0.2-1.9,0.2-2.7c0.2-3.2,0.1-6.6-1.4-9.5c-1.2-2.3-4-3.7-4-6.6c0.1-3.2,1-7,2.1-10c1.8-4.5,4.7-12.8,5-17
			c0.2-3.1-0.8-6-2.8-8.2c-2-2.1-4.8-3.4-7.7-3.4h-0.3l-0.2,0c-1.6,0-3.1,0.6-4.4,1.4c-1.8,1.2-3,2.8-5.2,5.9l-1.4,1.9
			c-1.3,1.7-5.7,7.6-6,13.5c-0.1,2.6-0.8,4.5-1.2,5.1c-1.1,1.6-2.6,4-4.1,5.2c-1,0.8-3.1-2.1-4.1-2.5c-1.1-0.5-2.2-0.7-3.4-0.7
			c-2.4,0-4.7,1-6.3,2.8l-0.4,0.4c-1.8,2.1-3.6,5.5-5.2,10.1c-0.9,2.6-1.2,5.2-1.6,7.9c-0.1,1-0.1,2-0.1,3.1l0,1.7
			c-0.1,0.5-0.5,1.9-0.8,3l0,0.2c-0.3,1-0.5,2-0.7,2.9c-0.3,1.4-0.7,2.9-1.1,4.5c-0.5,2.1-1.1,4.2-1.4,5.8c-0.4,1.9-1.3,4.4-2.2,7.1
			c-1,2.9-2.2,6.2-3.1,9.5c-2,7.7-1,16.1-0.6,19.7c0.2,1.4,0.4,2.9,0.7,4.4c0.4,2.5,0.9,5,0.8,6.8c-0.1,2.7-0.1,5.3-0.7,8
			c-0.6,2.8-2,4.7-3.7,6.9c-2.2,2.9-4.8,6.1-6.2,9.5c-2.3,5.3-1.8,11.9-1.6,15.8l0,0.3c0.2,2.8,1.1,5.3,2,7.6
			c0.6,1.6,1.3,3.3,1.7,5.1c0.8,3.9-0.5,9.7-1.1,12.2l-0.2,0.9c-0.9,3.9,0.4,7.4,1.3,9.7l0.4,1.1c0,0.5-0.1,1.7-0.2,2.7
			c-0.2,1.9-0.4,4.9-0.4,9c-0.1,5.2,0.2,8.6,0.9,11.2c1.8,6.4,6.6,7.7,8.6,8l1.2,0.1c1.1,0,2.3-0.2,3.3-0.7c3.1-1.3,4.5-3.9,5.7-6.2
			l0.3-0.6c0.6-1.1,1.6-3,1.9-5.3c0.2-1.8,0.6-3.4,1.1-5.4l0-0.1c0.3-1.1,0.6-2.4,0.9-3.8c0.1-0.6,0.5-1.4,0.9-2.3
			c1.1-2.4,2.7-5.7,2.9-10.8c0.1-3.1-0.5-7.8-1.2-11.2c-0.4-1.8-1-3.7-0.8-5.6c0.2-1.9,1.3-3.8,2.1-5.5c0.8-1.5,1.3-2,2.4-2.8
			c1.7-1.4,4.4-3.6,5.7-8.4c0.7-2.6,0.4-5.1,0.1-8.1c-0.3-2.5-0.6-5.4-0.2-8.2c0.2-1.6,0.8-4.1,1.3-6.3c0.8-3.6,1.3-5.9,1.4-7.5
			l0.1-1.2c0.2-2.2,0.4-5.5,1-8.9c0.4-2.3,0.9-4.5,1.3-6.5c0.7-3.2,1.3-6,1.4-8.6c0-0.9,0-1.9,0-2.8l-0.1-1.8
			c0.9-1.3,4.4,2.4,5.2,2.9l0.9,1.5l0.3,1.5c0.3,1.7,0.5,3.4,0.7,5.1c0.7,6.2,1.8,8.9,3.4,12.2l1,2c1.4,3.3,1.6,4.7,1.5,5.8
			c0,1.7,0.2,3.4,0.7,5.1c0.5,1.9,1.5,3.2,1.2,5.2c-0.4,2.6-0.9,6.1-0.1,10c0.6,2.5,1.8,4.9,3.7,6.8c0.9,0.9,1.9,1.6,3.1,2.2
			c0.8,0.4,2.2,0.4,2.8,1.1c0.7,0.7,0.5,2.8,0.6,3.8c0.4,3.5,1.3,7,3.1,10.1c2.2,3.8,5,5.4,7,6.1c1.2,0.4,2.5,0.7,3.7,0.7
			c4.7,0,8.6-3,10-7.7c0.6-2,0.6-4.1,0.6-7.7c0-2.8-0.1-6.3,0.4-8.7c0.5-2.4,1.7-4.8,2.9-7.2c0.8-1.5,1.5-3,2.1-4.5
			c1.1-2.9,1.2-6.3,1.3-11.6c0.1-2.9,0.1-5.8,0.5-7.8c0.5-1.5,2.1-2.6,2.8-4l0.6-0.6c0.8-0.1,0.6,4.2,0.7,4.7c0.3,4,1.5,7,2.3,9.2
			l0.7,2c0.1,0.9,0,4.3,0,6.7v0.1c-0.1,4.6-0.2,7.6,0.1,9.6c0.4,3.4,1.5,6.8,2.8,10c0.8,2,1.7,3.9,2.8,5.8c0.5,0.9,1.1,1.8,1.7,2.7
			c0.6,0.8,1.6,1.5,2,2.4c0.6,1.4-0.2,2.3-0.5,3.6c-0.7,3.5-1.5,7.4-1.2,11c0.1,2,0.6,3.9,1.6,5.6c0.6,1.1,1.5,2,2.4,2.9
			c0.8,0.8,1.5,1.4,1.6,2.6c0,1.1,0,2.1,0.1,3.2c0.2,1.5,0.5,3.1,1,4.5c0.8,2,2.1,3.8,3.8,5.2c0.8,0.7,1.6,1.2,2.4,1.8
			c0.8,0.5,2.1,0.8,2.2,1.9l-0.3,2c-0.1,0.9-0.3,2.1-0.3,3.3c0,3,0.9,6,3.2,7.9c0.7,0.6,1.5,1.1,2.4,1.4c1.3,0.5,2.8,0.2,4.1,0.7
			c1.2,0.4,2,1.5,3.1,1.9c1,0.4,2,0.5,3.1,0.5c1.8,0,3.6-0.6,5.1-1.6c2.5-1.8,3.9-4.7,3.8-7.9c-0.1-1.6-0.5-2.8-0.7-3.5l-0.3-1.8
			l-0.3-1.7l-0.3-1.9c0-1.4-0.1-2.7-0.2-3.6c-0.6-4.8-2.4-7.5-4.6-11l-0.8-1.2c-1.3-2-1.7-2.7-0.4-8c0.8-3.4,1.4-7,0.5-10.5
			c-0.4-1.5-1-3-1.8-4.4c-0.9-1.6-2.3-2.8-3.3-4.4c-0.6-1.1-0.3-2.3-0.2-3.4l0-0.1l0-0.2c0.4-3.8,0.9-7.8-0.8-11.7
			c-0.4-0.9-0.9-1.8-1.3-2.7c-1-1.8-2-3.9-2.2-6c0-0.5,0.2-1.1,1.1-2.9c0.9-1.8,2-4,2.8-7.1l0.7-2.8c0.9,0,1.1,2.3,1.2,2.9
			c0.4,3-0.2,6-0.3,9.1c-0.1,2.9-0.1,5.9,0.2,8.9c0.7,6.1,5.4,10.5,11.1,10.5h0.1l2.1-0.1l2,1.4c1,0.6,2.1,0.9,3.2,1.4
			c1,0.5,1.4,1.3,2.1,2.2c1.5,1.9,3.6,3.3,6,4c0.9,0.3,1.8,0.4,2.8,0.4h0.1c1.5,0,3-0.3,4.5-0.8c0.9-0.3,1.7-0.9,2.7-0.9
			c0.9-0.1,2,0.3,2.9,0.3c1.1,0,2.2-0.1,3.3-0.4c7.1-1.9,14.5-9.7,16.3-12.1l0.9-1.2c1-1.5,1.5-2.1,3-3.6c2.2-2.2,4-4.9,5.3-7.7
			l1-2.2l0.4-1.2l0.4-1l0.7,1.3c0.1,0.8-0.2,1.7-0.4,2.5c-0.3,1.2-0.6,2.5-0.9,4.1c-0.6,3.6,0,6.3,0.4,8.3l0.3,1.5
			c0,0.5-0.1,1.4-0.3,2.3c-0.3,2.1-0.7,4.8-0.3,7.8c0.7,5,5,8.7,10.4,8.7c2.9,0,5.6-1.1,7.5-3c4.1-4.1,4-10.5,4-15.2l0-0.7
			c0-0.4,0.7-1.8,1.1-2.7c0.6-1.3,0.9-4.2,1.7-4c0.8,0.2,2.8,4,4,6.1c1.1,1.9,2.7,3.6,4.3,5.2c0.8,0.8,1.5,1.5,1.5,2.7
			c0.1,1.2,0,2.5-0.1,3.7c-0.3,4.1,1,6.8,1.8,8.6l0.5,1.1c0.7,1.9,0.9,2.5,1.5,6.2c1,6.5,5.4,12.2,10.6,13.7c1,0.3,2,0.4,3,0.4
			c4.7,0,8.8-3,10.2-7.4c0,2.1,0.2,5,0.4,6.9c0.3,3.6,1.1,6.7,2.5,9.1c0.5,0.8,1,1.5,1.5,2.1l0.2,0.2c1.6,1.9,3.9,2.9,6.4,2.9
			l1.1-0.1l0.5-0.1l-1,1.7l-0.9,1.5c-0.8,0.7-2.8,1.8-4.6,2.7c-1.5,0.7-3.2,1.7-4.9,2.7c-3.8,2.3-5.5,3.9-8.1,6.2l-1.1,1
			c-0.9,0.8-1.9,1.7-3,2.6l-0.2,0.2c-3.6,3-5.2,4.4-6.2,5.9c-3.1,4.5-4.3,7.8-3.9,10.9l0.1,0.9c1.1,4.7,5,7.8,9.8,7.8l1.6-0.1
			c4.5-0.7,7.1-3.3,8.8-5l0.2-0.2l1.8-1.5c1.2-0.9,2.5-2,3.7-3.2l0.2-0.3c1.3-1.4,4.2-4.3,6.6-5.2c1.1-0.4,4-1,6.2-1.4
			c3.7-0.7,7.2-1.4,9.8-2.6c3.8-1.8,10-7.6,12.4-10.2c1.1-1.2,2.1-2.3,3.3-3.7c1.1-1.3,3-3.4,3.6-3.9l0.6-0.4l0.1,0
			c2.2-1.5,6.3-4.2,8-9.4c0-0.1,0.6-1.6,4.4-7.4c0.5-0.7,3.3-3.8,4.2-4.8l1.4-1.5c0.9-0.9,1.8-1.9,2.5-2.9c1.6-1.9,2.1-4,2.5-5.7
			c0.2-0.9,0.4-1.8,0.8-2.6c0.1-0.2,1.5-2.3,7.5-6c1.7-1,3.6-2.4,5.6-3.9l0.1-0.1l0.1,0c1.6-1.1,3.2-2.3,4.8-3.4
			c5.3-3.6,6.9-7.1,8-9.4l0.4-0.8c0.8-1.3,5.3-5.1,7.3-5.7l0.9-0.3c3.2-1,8.2-2.6,13.5-7.1c2.1-1.8,4.1-3.9,5.6-6.4
			c0.5-0.8,0.9-1.7,1.3-2.5c0.4-1,0.5-1.8,1.4-2.5c1-0.7,2.1-1.4,3.2-1.8c2.8-1,9.6-4.9,12.5-8.4c0.3-0.3,1.5-1.1,5.5-3.3
			c1.2-0.7,1.9-1.1,2.5-1.5c1.4-0.9,3.5-2.6,6.7-5.4c2.7-2.3,10.6-9.6,12-10.9c1.1-1.1,2-2.2,2.5-3.5l0.1-0.2
			C953.5,128.3,952.4,124.2,949.3,121.7 M745.4,135.3l-0.5-0.5l-0.1-0.2l-0.5-0.6l-0.4-0.4l-0.7-0.8l-0.1-0.1l-0.2-0.2l-0.2-0.4
			l0.2-0.3l1.2-1.1l0.5-0.6l0.2-0.2l0.7-0.6l0.3,0.1l0.2,0.7l0,0.2l0.1,0.6c0.2,0.9,0.4,1.9,0.4,2.6l-0.3,1l-0.1,0.2l-0.4,0.5l0,0
			L745.4,135.3L745.4,135.3L745.4,135.3z"/>
		<path class="st0" d="M473.6,185.3c-1-3.3-2.3-6.2-3.1-8.1l-0.4-0.9c-0.6-1.4-0.4-5.8-0.3-7.7c0-0.9,0.1-1.7,0.1-2.3
			c0-1.4-0.1-2.7-0.3-3.9c-0.2-1.8-0.3-3.3-0.1-4.9c0.2-1.3,0.8-3.5,1.6-6.7c0.5-2,1.1-4,1.6-5.7l0.1-0.3c0.3-1,0.5-1.8,0.7-2.4
			c0.7-2.3,0.9-4.8,0.4-7.2c-0.2-1.2-0.6-2.3-1.2-3.4l-1.1-1.9c-0.2-0.8,0-1.6,0.2-2.3c0.3-2,0.8-3.8,1.2-4.8l0.6-1.7
			c0.7-1.8,1.4-3.8,1.7-6.1c0.6-5-2.1-9.6-6.6-11.3c-1.2-0.5-2.5-0.7-3.9-0.7c-1.4,0-2.8,0.3-4.1,0.8c-2.9,1.1-5,3.2-6.5,5.8
			c-1.6,2.7-3.3,5.9-4.1,9c-0.6,2.2-0.1,4.7-0.9,6.7c-0.5,1.4-1.1,2.9-1.4,4.4c-0.3,1.5-0.4,3-0.7,4.5c-0.4,1.4-1.1,2.8-1.8,4.1
			c-0.8,1.5-1.3,3.1-1.6,4.7c-0.4,1.6-0.3,4.2-1.2,5.6c-0.5,0.8-1.5,1.1-2.2,1.7c-0.7,0.7-1.2,1.7-2.1,2.1c-2.3,1.1-1.3-1.6-1-3
			c0.2-1,0.5-2,0.7-3c0.9-3.8,1.8-7.7,1.8-11c0-2.6-0.5-4.9-1.4-6.8l0-0.1c-2.3-4.9-6.2-5.9-8.2-6l-0.6,0c-4.3,0-7.6,2.5-9.7,7.5
			l0,0.1l-0.5,0.8c-0.8,1.3-1.9,3-2.6,5.2c-0.4,1.1-0.8,2.2-1.2,3.4l-1.1,2.7l-0.6,0c-2.1-0.4-1.7-2.4-2.1-4.1
			c-0.4-1.6-0.9-3.1-1.6-4.6c-2.5-5.4-7.3-7.3-10.8-7.3c-2.1,0-4,0.6-5.6,1.8l-0.9,0.7c-0.9,0.8-1.3,2.1-2,3.1l-0.9,0.7
			c-0.8,0-0.8-1.7-0.9-2.2c-0.1-0.5-0.1-2-0.1-3.1c0-2,0-4.6-0.6-7.4c-0.3-1.3-0.9-4.1-3.2-6.4c-1.8-1.8-4.2-2.8-6.7-2.8
			c-5.6,0-8.8,4.5-10,6.3l-0.1,0.1c-1.2,1.7-2,3.6-2.6,5.6c-0.4,1.3-0.3,2.8-0.8,4c-0.5,1.2-1.3,1.2-2.3,1.7
			c-3.4,1.4-5.9,4.7-7.6,9.9c-0.2,0.6-0.7,1.7-1.1,2.8l-0.4,1c-0.6,1.3-1.3,2.9-1.7,4.8c-0.8,3.5,0.1,6.6,0.7,8.4l0.2,0.6
			c0.2,0.8,0.6,1.7,0.6,2.6c0,0.9-0.5,1.8-0.7,2.7c-0.6,2.1-1.4,5-2.6,7.9c-0.8,2-1,2.4-1.8,3.6c-0.5,0.8-1,1.7-1.7,3.1
			c-1.4,2.6-1.9,5.5-1.5,8.4c0.2,1.7,0.7,3.3,1.3,4.8c0.4,1.1,1.2,2.2,1.3,3.4c0.1,1.1-0.1,2.2-0.1,3.3c0.2,2.5,0.9,4.9,2.6,6.8
			c1.9,2.1,4.6,3.3,7.4,3.3c4.5,0,8.3-3.1,9.4-7.6l1.2-1.9c0.6-0.9,1.3-1.9,1.8-3c0.7-1.5,1.2-3.1,1.2-4.7c0-0.9-0.6-1.8-0.6-2.8
			c0-1,1.3-2.2,2.2-2.8c1.3-0.9,2.1,3,2.5,4.3c0.6,2,1.7,3.6,2.6,5.5c1.2,2.5,1.8,5.1,3.6,7.3c2,2.5,4.7,3.9,7.7,3.9
			c2.4,0,4.8-1,6.6-2.6c0.9-0.8,1.7-1.8,2.4-2.9c0.5-1,0.5-2.3,1.3-3.1c1-1.1,3-0.8,4.4-1.2c1.5-0.5,2.9-1.2,4.1-2.4
			c1.2-1.2,1.3-4.8,2.7-5.3c1.9-0.7,2.3,2.3,2.8,3.5c0.4,1.1,1,2.1,1.7,3c1.7,2.4,4.2,3.9,7.2,4.1l0.8,0c1,0,1.9-0.1,2.8-0.4
			c0.8-0.3,1.6-1,2.5-0.8c1,0.2,1.9,1.1,2.7,1.6c2,0.9,4.3,1.6,6.3,2.6c2,1,4,1.7,6.3,1.8l0.7,0l1.8,0.1c1.5,0,2.8-0.3,4.2-0.7
			c2.2-0.6,2.5,1.2,3.8,2.6c1.2,1.2,4.5,4.4,9.4,4.4c2.6,0,5-0.9,7.1-2.6c3.7-3.1,5.5-7.6,4.8-12.3
			C474.9,190.2,474.3,187.7,473.6,185.3"/>
		<path class="st0" d="M248.4,155.9l-0.5,2.3c-1.5,2.1-2.9,5.2-2.9,8.6c0,2.8,0.3,2.8-1.7,1.1c-1.7-1.5-3.8-2.2-6.1-2.2
			c-1.5,0-3,0.4-4.3,1c-1.1,0.5-2.1,1.2-3.1,2l-0.4,0.2l-0.8-0.2c-1-0.7-2-1.3-3.1-2c-1.9-1.2-4-2.2-6.2-2.5l-1.2-0.1
			c-0.9,0-1.7,0.2-2.5,0.4c-0.8,0.2-1.5,0.7-2.3,0.9c-0.9,0.2-2.8,0-3.6-0.6c-1.3-1.1,0.2-2.8,0.5-4.3c0.4-1.5,0.4-3.1,0.1-4.7
			c-0.2-1.2-0.7-2.4-1.3-3.4c-1.3-2.2-2.6-2.6-0.1-4.5c1.1-0.9,2.3-1.7,3.4-2.6c2.2-1.7,4.1-3.8,6.3-5.6c1.3-1.1,2.7-2.1,3.8-3.4
			c0.8-1.1,1-2.9,1.8-3.8c0.6-0.6,2.3-0.6,3.6-0.6c0.6,0,1.1,0,1.4,0c2.2-0.2,4.4-0.5,6.5-1.3c1.3-0.5,2.4-1.2,3.5-2
			c1-0.8,2.5-2.6,3.1-2.4l-0.1,2.6c-1.4,2.6-3.9,8-4.8,13.3c-0.5,3.3,0.5,6.9,2.7,9.5c1,1.2,2.2,2.1,3.6,2.8
			c0.7,0.3,1.5,0.5,2.2,0.7c0.2,0,0.5,0,0.8,0c0.7-0.1,1.4-0.1,1.6,0.7L248.4,155.9 M147.7,192.4l-1.1-0.6c-2-2.7-5.9-3.9-7.3-7.1
			c-1.9-4.4-4.7-11-11.4-14.9c-1.7-1-3.8-1.9-5.8-2c-1-0.1-2.2-0.1-3.1-0.7c-1-0.7-1.3-2.2-2.2-3.1c-2-2.1-4-2.7-6.7-3.5
			c-1.3-0.4-1.7-1.8-2.3-2.9c-0.7-1.2-1.5-2.5-2.6-3.5l0.3-1.3l0.7-1.2l1.2-2l1.6-0.2c1.7-0.2,3.5-0.5,5.4-1.4
			c1.8-0.8,3.4-1.9,4.9-3.5c2.7-2.6,4.7-5.9,6.2-9.8c0.5-1.5,1-3,1.4-4.7c0.2-1,0.2-2.3,0.8-3.1c1.1-1.4,2.4-2.5,3.3-4
			c1.3-2.3,1.7-5.5,1.7-8.1c0-1.1-0.5-2.5,0.4-3.3c1.3-1.3,2.4-3,3.3-4.6c0.7-1.3,1.2-2.7,1.6-4.1c0.2-0.8,0.4-1.6,0.6-2.4l0.6-1.4
			c1.2,0,1.9,1,2.8,1.7c0.9,0.8,1.9,1.6,2.9,2.3c0.7,0.5,1.8,0.9,2.1,1.7c0.4,1.3-0.7,1.6-1.5,2.1c-0.9,0.6-1.9,1.2-2.5,2.1
			c-1.8,2.6-2.2,6.3-1.1,10.6l0.5,2.2c0,0.8-0.3,1.5-0.5,2.2c-0.6,2.3-1.1,4.1-1,6.1c0.1,1.4,0.4,2.8,1.1,4l1.2,1.7
			c1.6,1.7,0.8,2.1-0.1,3.9c-0.5,1-0.9,2-1.3,3.1c-0.7,2.1-1.2,4.3-1.2,6.6c0,2.2,0.7,4.3,1.8,6.2c0.5,0.8,1,1.6,1.6,2.3
			c0.5,0.6,1.2,1.1,1.3,1.9c0.3,2.2-0.3,4.8-0.6,7c-0.3,2.1-0.3,4.2,0.1,6.3c0.2,1,0.6,1.9,0.9,2.9c0.5,2.1-0.4,4.3,0.1,6.5
			c0.4,1.8,1.2,3.4,2.2,5.1c0.4,0.8,0.5,1.9,0.5,2.7C148.3,191,148.2,192.1,147.7,192.4 M96.3,104.4c-0.4,1.4-1.8,2.5-2.6,3.7
			c-0.9,1.3-2.2,2.1-3.1,3.3c-1.7,2.3-2.8,5-3.2,8.2c-0.1,1.2-0.1,5.8-1.3,6.5l-0.5,0.2c-0.9,0.2-1.9,0.5-2.9,0.5
			c-2.7,0.6-5.3,1.8-7.6,3.2c-1.2,0.7-2.4,1.6-3.5,2.5c-2,1.6-3.5,0.7-5.6-0.3l-0.7-2.1c-0.2-1.1-0.6-2.1-1.2-3.1
			c-0.6-1.2-1.5-2-2.4-3l-0.4-0.5l0.1-2.5c0-1-0.1-2.1-0.2-3.1c-0.3-1.7-0.7-3.2-1.4-4.5c-0.5-1-1.2-1.8-1.9-2.6
			c-0.7-0.7-1.5-1.5-1.7-2.5c-0.3-1.5,0.4-3.2,0.3-4.7c-0.1-1.7-0.4-3.7-1.4-5.1c-1.3-1.8-2.4-4.1-3.9-5.6c-1.2-1.2-0.8-3.2-0.8-4.7
			c0.3-0.9,0.7-2.4,0.6-4.2c0-1.4-1.6-3.7-0.9-4.9c0.9-1.5,4-1.1,5.5-1.8c2.8-1.3,5.2-3.3,7.2-5c0.9-0.8,1.9-1.9,3.2-2
			c1.5-0.1,3.3,0.6,4.9,0.7c0.2,0,0.5,0,0.8,0c0.8,0,1.7,0,2.3,0.4l1.5,2.4c0.7,1,1.6,1.8,2.5,2.5l0.1,0.1c0.8,0.7,2,1.7,3.5,2.1
			c1.2,0.3,2.4,0.6,3.7,0.8c1,0.1,2.3-0.1,2.6,1.2l0.4,2.1c0.5,1.3,1.2,2.4,2,3.5c0.7,0.9,1.5,1.8,2.4,2.6l1.7,2
			c0.2,1.1-0.9,2.8-0.9,4c-0.1,1.4,0.2,2.8,0.5,4.1l0,0.1l0.2,0.6c0.6,1.4,2.2,2.6,2.3,4.2L96.3,104.4 M333.9,87.7
			c-1.3-1.5-3.7-3.3-7.6-3.3c-1.9,0-4.1,0.4-6.3,1.2c-3.5,1.3-12.1,6.7-14.6,8.9c-0.8,0.7-1.7,1.5-2.7,2.5c-1,1-3.2,3-3.9,3.4
			c-2.2,1.3-3.4,2.7-4.5,3.9c-0.7,0.7-1.3,1.4-2.4,2.5h-0.1c-1,0-1.9,0.1-2.7,0.3c-2,0.5-3.7,1.6-5.3,2.8c-0.9,0.7-1.7,1.6-2.6,2.4
			c-1.6,1.2-2.1,1.2-2-0.9c0.1-1.9,0.2-3.8-0.1-5.7c-0.3-1.8-1.2-3.2-1.6-4.9c-0.3-1.4-0.1-2.9-0.2-4.3c-0.2-2.2-1.5-4.4-0.6-6.5
			c1.6-3.7,3-7.8,2.9-11.9c-0.1-4.2-0.3-12.9-8.7-15c-0.7-0.2-1.5-0.3-2.4-0.3c-1.4,0-2.9,0.3-4.1,0.9c-0.9,0.4-1.7,1.1-2.6,1.4
			c-1.1,0.3-1.9-0.1-3-0.1c-1.9,0-3.8,0.6-5.4,1.7c-1.5,1.1-2.7,2.6-3.5,4.5c-1.8,4.2-1.1,7.9-0.6,10.3l0,0.1l0.2,1.3
			c0.1,1.3,0.3,2.7,0.4,4.3c0.2,4,0.1,7.1-0.4,9.8c-0.1,0.6-0.2,1.3-0.4,2.1c-0.4,2.2-0.9,5-1.5,7.3c-0.4,1.5-0.3,3-0.7,4.5l-0.8,2
			c-1.2,1.6-2.1-0.9-2.9-1.8c-1-1-2.1-1.8-3.4-2.4c-2.1-0.9-4.2-1.4-6.5-1.4c-2.4,0-4.7,0.6-7,1.1c-1.2,0.3-2.4-1.2-3.5-1.7
			c-1.5-0.8-3.3-1.2-5-1.2c-4.3,0-8.8,1.3-12.6,3.4c-2,1.1-3.8,2.4-5.3,4.1c-0.7,0.8-1.4,1.7-1.9,2.6c-0.5,0.9-0.5,2.1-1.1,3
			c-0.7,1.1-1.8,1.1-2.9,1.5c-1,0.4-2.1,0.8-3,1.3c-1.3,0.6-2.4,1.4-3.5,2.4l-0.1,0.1l-0.1,0.1c-1.4,1.3-5.6,5.2-5.3,11.7
			c0.1,1,0,1.7-1.1,4l-0.9,1.7c-1.1,2.1-2.5,4.8-2.3,9.8c0,1.1-1.2,3-1.5,1l-0.2-1.7c-0.2-1.2-0.6-2.3-1.2-3.3
			c-1.2-2.2-3-3.9-5.2-5.2c-0.1-0.4-0.2-1.2-0.2-2.5c0-0.9,0.5-3.2,1-5c0.4-1.5,0.8-3.1,1.2-4.8c1.2-6-0.5-9.7-1.7-12.5l0-0.1
			l0.1-0.3c0.2-0.9,0.4-2.1,0.4-3.6c0-2.2-0.7-4.3-2.1-6.1l-1.9-1.8c-0.7-0.6-1.6-0.8-2.4-1.2l-0.7-0.6l0.9-1.6
			c0.6-0.7,1.1-1.4,1.5-2.2c1.4-2.8,1.8-6,1.8-9c0-1.9,0.3-2.7,0.7-4.1l0.6-2c0.4-1.5,1.5-6.7-1.5-11.1c-1.1-1.6-2.6-2.2-3.9-3.4
			l-0.7-2.6c-0.2-0.9-0.6-1.7-1-2.5c-0.7-1.3-1.7-2.4-2.9-3.2c-1.8-1.2-3.9-1.9-6.1-2l-0.9,0c-5.8,0-11,4-12.8,9.8l-1.4,0
			c-0.5-0.8-1-1.5-1.6-2.2l-1.4-1.7c-0.3-0.9,0.1-1.9,0.2-2.8c0.1-1.2,0.2-2.3,0.2-3.5c0.1-2.4-0.1-4.8-0.6-7.1c-1.2-5-5.2-8-6.5-9
			c-2.4-1.8-5-2.9-7.8-3.1l-1,0c-0.8,0-1.7,0.6-2.5,0.3c-0.8-0.3-0.8-1.1-1-1.9c-0.4-1.5-1.5-2.9-2.7-4c-2-1.8-4.5-2.7-7.5-2.7
			l-0.3,0H105c-1.3,0-2.6,0.4-3.9,0.4c-1.5,0-2.1-0.7-3.3-1.5c-2-1.3-4-2.7-6.3-3.5c-1.7-0.6-3.5-1.6-5.1-2.4l-2.1-1.2
			c-1.6-1-3.6-2.1-6-3c-2.7-1-5.7-1.5-9.1-1.5c-0.8,0-1.6,0-2.6,0.1c-1.7,0.1-3.8,0.3-6,0.9c-3.1,0.9-5.2,2.5-6.7,3.6l-0.7,0.5
			c-1.5,1.1-3.1,2.3-5,3.8c-0.9,0.7-1.9,1.5-2.8,2.2c-4.2,3.4-5.9,3.7-6.4,3.7c-1.1-0.2-2.4-0.5-3.7-0.9L35,33.2
			c-0.9-0.3-2.4-0.7-4.4-0.7l-1.5,0.1c-1.9,0.2-3.5,0.8-4.6,1.2c-2,0.8-3.9,1.9-6,3.2l-0.4,0.2c-0.7,0.5-1.7,1.1-2.7,2L13.7,41
			c-1,0.5-1.6,0.1-2.6,0.1l-2,0.2c-2.6,0.5-5,2.1-6.6,4.5C0,49.4-0.2,53.8,0.1,56.9c0.4,3.8,1.8,7.1,4.1,9.6l2.1,2.1
			C7,69.3,8,69.8,8,71c0,1.5-0.5,3-0.9,4.5C6,79.8,4.5,85.6,6.9,91.9c1.7,4.4,4.8,7.6,7,9.9c1.1,1.1,2.6,2.2,3.1,3.8
			c0.6,1.8-0.4,4.2-0.9,6c-0.4,1.5-0.8,2.8-0.9,4.3c-0.1,1.8,0.1,3.5,0.6,5l0.6,2c0,0.8-0.1,1.5,0,2.3c0.2,1.7,0.8,3.3,1.6,4.7
			c0.4,0.7,0.4,1.2,0.2,3l-0.2,1.8c-0.3,3.6,0.7,7.2,2.8,10.3c0.6,0.8,1.2,1.7,1.8,2.5c0.8,0.9,1.8,1.4,1.7,2.8
			c-0.1,1.1-0.4,2-0.4,3.1c0,2,0.3,4,1,6c0.2,0.6,0.5,1.3,0.8,2.2c1.3,3.6,3.6,9.5,3.7,14.1c0.1,2.2-0.4,4.3-1.3,6.3
			c-1.5,3.3-1.7,6.6-0.5,9.7c0.8,2.1,2.1,3.6,2.8,4.5l0.2,0.2c0.6,0.7,1.1,1.4,1.5,2.1l0.3,0.7c0.4,0.8,0.9,1.7,1,2.5
			c0.2,1.4-1.5,3.5-2,4.9c-0.6,2-0.9,4.1-0.9,6.2v0.2c0,4.3,0,8.3,3.4,13.2c1.1,1.6,1.2,2,1.7,3.9c0.5,2.1,1.4,4.1,2.7,5.8l1.2,1.5
			c0,1.1,0.1,2.5,0.4,4c0,0.3-0.1,1.4-0.2,2.2c-0.1,1-0.3,2.1-0.3,3.3c0,0.7-0.2,2.9,1,5.3c0.7,1.5,1.7,2.7,3,3.8
			c1.6,1.3,2.4,1.5,2.2,3.7c-0.2,2.6,0.1,5.5,1,8c0.6,1.7,1.4,3.2,2.5,4.6c1,1.3,2.4,2.9,4.5,4c1.5,0.8,3.2,1.3,4.9,1.3
			c2.7,0,5.3-1.1,7.2-3c3.2-3.2,3.4-7.5,3.3-8.7c0-1.4,0-2.8-0.2-4.1c-0.2-1.2-0.5-2.7,0.2-3.8c0.6-0.9,1.6-1.8,2.2-2.7
			c1.5-1.9,2.8-4,3.3-6.5c0.8-3.9-0.5-7.7-2.9-10.9l0,0c-0.1-0.2-0.2-0.8-0.3-1.8l0-1.3l0.5-1.4c0.9-2.5,2.4-6.6,1.1-11.4
			c-0.7-2.5-2-4.3-2.7-5.4l-0.3-0.5l-0.8-1.2l-1.2-1.8l-0.6-1.1c0.2-0.7,0.6-1.4,1-2.2c0.5-0.9,1-1.8,1.4-2.9c1-2.7,1.5-5.5,1.3-8.3
			c-0.1-1.5-0.3-3-0.8-4.4l-0.8-2.1l-0.7-1.5l0.4-1.7l0.6-1.8l0.2-1.7c0.1-1.3-0.3-2,1.3-1.4l1.2,0.3c0.9,0.2,1.8,0.3,2.7,0.2
			l2.2-0.2l0.7-0.1l1.6,1.9c0.6,0.8,1.1,1.6,1.5,2.5c0.7,1.6,2.4,4.7,5.2,6.9c1.9,1.5,4.1,2.2,6.4,2.2l0.9,0
			c0.8-0.1,1.7-0.2,2.5-0.5l1.7-0.5c0.8,0.3,1.5,1.1,2.3,1.4c1.2,0.5,2.7,0.2,3.9,0.9c1.4,0.7,2.2,3,2.5,4.5c1.5,6.9,5.8,11,11.6,11
			c0.8,0,1.6-0.1,2.3-0.2c2-0.4,2.3-1,3,1.2c1.6,4.8,4.6,8.9,9.1,11.3l1.8,0.8l1.7,0.6c2.5,0.6,3.2,3.8,4.4,5.8
			c1.1,1.9,2.4,3.7,4,5.3c1.8,1.8,3.8,2.9,5.7,4.1c0.9,0.5,2,0.9,2.7,1.7c0.9,1,0.6,2.8,0.8,4.1c0.6,2.9,1.9,5.6,3.4,8.2
			c0.5,0.8,1.3,1.9,3.5,5c0.6,0.9,2.2,3.1,2.8,3.9c1,2,2.6,5.2,6.7,7.4c1.2,0.6,2.2,1,3.1,1.3l1.1,0.5l0.8,1.4l0.2,0.4
			c0.5,0.9,1.2,2.1,2.1,3.4c2,2.7,4.4,4.3,7.3,4.6l1.2,0.1c3,0,5.8-1.4,7.6-3.8c3.2-4.2,1.8-9.1,1.2-11.2l-0.1-0.4
			c0.3-3.5-0.8-7.2-1.6-9.2l-0.1-0.5c-0.6-3.7-4.9-12.7-7.6-16.1l-0.4-0.5c-1.4-1.8-2.9-3.2-4.3-4.6l-0.3-0.3c-1.8-1.7-2-2-2.1-3.3
			c-0.2-2.6-0.5-5.8-2.6-8.9c-1.2-1.8-3.1-4.2-5.6-6c-1.7-1.2-3.5-1.8-4.4-2.2l-0.1,0c-1.7-0.8-2.3-1.4-2.5-1.7
			c-0.4-0.9-1.1-1.9-0.3-2.8l1.7-0.9c0.8-0.5,1.6-1.3,2.2-2c1.3-1.6,2.1-3.6,2.5-5.6l0.1-0.5c0.6-2.7,0.5-4.6,0.3-7.4
			c-0.1-1-0.1-2.2-0.2-3.7c-0.1-3,0.2-3.6,0.9-5.2l0.6-1.3l0.7-2.1c0.7-2.1,1.9,0.9,2.1,1.2c0.6,0.9,1.3,1.8,2.2,2.4
			c1,0.8,2.2,1.3,3.5,1.7l3.6,0.7c0.7,1.5,0.6,3.1,1.5,4.7c0.8,1.4,3,2.9,3.4,4.5c0.7,3,0.6,5.9,2.2,8.7c1.6,2.9,4.4,4.7,7.7,4.8
			l0.1,0h0.2h0.1c7.3,0,10.3-6.9,12.1-11l1-2.1c0.4-0.9,0.9-2.2,1.6-2.9l2.8-0.3c1.1-0.1,2.2-0.3,3.2-0.8c1.9-0.8,3.6-2,5-3.1
			l1.7-1.1c0.7-0.3,1.6-0.1,2.4-0.1c0.9,0.1,1.9,0.1,3,0.1l1.3,0c6.7-0.4,9.5-4.5,11.2-6.9l0.6-0.8l1.4-1.8l-0.3,2.4
			c-0.4,1.1-0.6,2.2-0.7,3.3c-0.2,1.5-0.3,3-0.9,4.4c-0.5,1.2-0.9,2.4-1.3,3.7c-0.9,2.8-1.7,5.7-2.1,8.7c-0.6,5.1,0.6,8.3,2.1,10.3
			c0.8,3.9,3.8,7.6,8.9,7.6c2.9,0,6.8-1.3,9.1-7.2c0.9-1.3,1.6-2.7,2.1-4.1c0.5-1.5,0.8-2.8,1-3.7l0.2-1c1.6-2.5,3.6-7.5,4.7-13.3
			c0.4-2,0.8-4.6,1.3-7.4l0-0.1c0.3-1.6,0.6-3.2,0.8-4.8l0.7-1.6c0.8-0.3,1.2,0.6,1.7,1.1l2.3,1.6c0.7,0.8,1,1.9,1.5,2.8l1.1,2.2
			c1.2,2.4,1.5,3.9,1.8,5.9c0.2,1.2,0.4,2.6,0.8,4.1c1.2,4.5,4.2,7.1,6,8.6l1,0.9c1.2,1.5,2.1,4.2,2.7,6.4c0.4,1.4,0.9,2.8,1.4,4
			c1.1,2.5,3.1,5.5,4.6,7.6l0.1,0.1l0.9,1.3c0.1,0.4,0.5,1.7,1.1,5.3l0,0.1c0.3,1.6,1,3,1.4,4.5c0.4,1.3,0.4,2.6,0.5,4
			c0.2,2.9,0.9,5.8,3.1,7.9c1.9,1.8,4.3,2.9,6.9,2.9c2.2,0,4.3-0.7,6-2c1.4-1,1.9-3,3.4-3.9c1.8-1.1,3.5-1.5,4.9-3.2
			c2.5-3.1,2.8-6.9,1.2-14.2c-0.3-1.6-1.1-3.6-2.1-6.4c-1.3-3.4-3-8.1-4-12.3c-1.1-4.5-1.5-7.5-1.8-10.3c-0.2-1.8-0.5-3.5-0.8-5.4
			c-0.8-4.1-2.7-6.9-4.1-8.9c-0.7-1-1.3-1.9-1.8-2.9c-0.3-0.7-0.4-1.1-0.4-2.4c-0.2-2-0.4-5-2.5-8.3c-1.5-2.3-3.6-4-6.1-5
			c-1.4-0.6-3.1-0.6-4.6-1.1c-1.7-0.5-2.3-1.4-3.2-2.8c-0.8-1.2-1.7-2.5-3-4.1c-2.2-2.7-3.5-4.4-4.1-5.6l0-0.1l0-0.1
			c-0.5-1.5-1.7-2.8-2.3-4.2c-1-2.6,1.5-2.1,3.4-3l0.3-0.2c5.4-2.7,9.2-4.9,11.5-7.2c1.2-1.2,3.6-4.3,4.6-7.6
			c0.8-2.6,1.6-4.8,2.6-6.6c0.4-0.5,2.1-1.4,3.2-2c1.3-0.7,2.7-1.5,4.1-2.4c2.3-1.5,4.5-3.2,6.1-5.5c1.7-2.3,2.5-4.7,4.8-6.6
			c1.2-1,2-2.2,3.2-3.2c1-0.7,2.1-1.2,3.1-1.9c2.3-1.7,3.9-4.2,4.4-7.1C336.4,92.4,335.7,89.8,333.9,87.7"/>
	</g>
	<g>
		<path class="st1" d="M945.7,126.4l-0.1-0.1c-0.6-0.5-1.5-0.8-2.4-1l-0.4,0c-1.1,0-2.3,0.6-3.9,1.5l-1.4,0.7
			c-1.2,0.5-3,1.2-5.6,2.3l-1.6,0.7c-2.7,1.1-4.5,2.9-6.1,4.6l-2,1.9c-2.3,2-4.3,2.9-7.3,4.4c-1.7,0.8-3,1.9-4.2,2.9
			c-1,0.9-2,1.7-3.2,2.3c-0.6,0.3-1.5,0.5-2.4,0.7c-2,0.5-4.8,1.2-8,3.1c-2,1.2-3.7,1.5-5.8,2c-1,0.2-2.1,0.4-3.3,0.8
			c-3.6,1-4.7,2.9-5.8,4.7l-0.7,1l-0.9,1l0.6-2.3c0.6-1.6,1.4-3.9,0.5-6.6c-0.9-2.7-2.6-4.6-3.8-5.9l-0.8-0.9
			c-0.3-0.4-0.5-0.8-0.5-2.5c0-1.6-1-2.9-1.8-3.9l-0.9-1.4c-0.3-1.2-0.2-4.2,0-6.9c0.1-1.5,0.2-3,0.1-4.3c0-3.4-0.6-9.3-1.2-11.8
			c-0.5-1.7-1.9-2.9-3.2-4.2c-0.8-0.8-1.7-1.5-2.1-2.2c-0.1-0.2-0.5-1.3-0.7-2.1c-0.4-1.1-0.8-2.5-1.4-3.9c-0.5-1.2-1-2.4-1.5-3.6
			c-0.7-1.6-1.4-3.4-1.5-3.9l0-0.2c-0.2-2-0.7-6.1-2.2-9.3c-0.6-1.2-1.1-2.7-1.6-4.3c-0.7-2.2-1.5-4.5-2.6-6.5
			c-0.7-1.2-1.3-2.4-1.8-3.5c-0.7-1.5-1.4-3.1-2.2-4l-0.2-0.3c-0.5-0.6-1.3-1-2.1-1l-0.5,0.1c-1,0.2-1.8,0.9-2,1.9l-0.1,0.3
			l-0.2,1.1c-0.1,1,0.1,2.4,0.4,4.4c0.2,1,0.3,1.9,0.4,2.8c0.2,2.2,0.2,4.5,0.1,6.7c0,1.2-0.2,2.5-0.1,3.8l0.1,1.9
			c-0.3,0.9-1.1,0.6-1.8,0.9l-1.2,1.3l0,0.1c-0.5,1.2-0.7,3.2-0.7,7.5c0,2.7,0.6,4.8,1.1,6.5c0.3,1.2,0.6,2.2,0.6,3
			c0,2.1,0.1,12.6,0.4,18.1c0.2,3.3,1.5,6.3,2.6,9c0.6,1.4,1.2,2.7,1.5,4c1,3.6,1.2,9.6,1.1,10.8c-0.1,2.7,1.7,4.4,2.4,5l0.1,0.1
			c0.6,0.6,1.4,0.9,2.4,0.9c0.6,0,1.2-0.1,1,0.7c-0.3,1.3-0.6,2.6-0.8,3.9c-0.5,2.4-1.1,4.8-1.9,7.1c-0.6,1.7-1.1,3-1.5,4.3l0,0.1
			c-0.6,1.5-1,2.9-1.5,4.4c-0.9,3.1-0.7,4.6-0.4,6.2l0.2,1.4l0.1,1.6l0.1,1.5l-1.2,0.9c-1.5,0.6-3,1.2-4.6,1.8l-1.9,0.7
			c-0.8,0.3-2,0.6-3.2,0.9c-4.7,1.3-8.1,2.4-9,4.9c-0.9,2.8,1.1,4,2.5,4.5l-1.2,0.7c-1.5,0.9-3.4,2-5.3,3.3
			c-3.5,2.3-7.7,6.3-8.8,9.1c-0.9,2.4,0.3,4.3,1.3,5.9c0.5,0.8,1,1.6,1.1,2.3c-0.1,0.4-0.9,2.2-6,6.9c-1.2,1.1-2.6,2.3-3.9,3.3
			c-1.6,1.3-3,2.5-4.2,3.6c-0.7,0.7-1.2,1.5-1.5,2.4c-0.3,0.9-0.2,1.8-1.2,2.3c-1.1,0.5-2.7,1.3-4.6,2.8c-1.9,1.5-3,3.6-4.1,5.4
			c-0.6,1.1-1.2,2.2-1.8,2.8c-1.4,1.3-3.7,2.5-6.2,3.8c-1.4,0.7-3,1.5-4.4,2.4c-3.3,2.1-4.7,3.3-7.2,5.5l-1.2,1c-1,0.9-2,1.8-3,2.6
			l-0.2,0.1c-3.2,2.7-4.6,4-5.2,4.8c-2.9,4.1-3,5.8-2.9,6.8l0.1,0.3c0.5,2,2,3.2,4,3.2l0.8-0.1c2.6-0.4,4-1.9,5.5-3.3l0.2-0.2
			c0.6-0.6,1.5-1.3,2.3-1.9c1.1-0.9,2.2-1.8,3.2-2.8l0.2-0.2c1.8-1.8,5.1-5.2,8.7-6.6c1.6-0.6,4.5-1.2,7.2-1.7
			c3.4-0.7,6.5-1.3,8.5-2.2c2.4-1.1,7.4-5.5,10.5-8.8c1.1-1.2,2.1-2.4,3.2-3.5c1.8-2.1,3.5-4,4.4-4.7l1-0.7c1.9-1.3,4.6-3.1,5.6-6.3
			c0.7-2.1,4-7.1,5.1-8.8c0.7-1,3.1-3.7,4.8-5.6l1.4-1.6c0.9-0.9,1.7-1.8,2.3-2.6c0.7-0.9,1-2,1.3-3.3c0.3-1.1,0.6-2.3,1.2-3.7
			c0.6-1.3,2.6-4.1,9.8-8.6c1.5-0.9,3.3-2.2,5.2-3.6c1.7-1.2,3.4-2.5,5.2-3.6c3.9-2.6,5-4.9,5.9-7l0.5-1.1c1.3-2.5,7.2-7.6,10.7-8.7
			l1-0.3c3.1-1,7-2.2,11.4-6c4.3-3.7,5.2-6.4,5.8-8.3l0.6-1.5c0.6-0.9,4.6-3.6,6.8-4.4c2.3-0.8,8.2-4.3,10.1-6.7
			c1-1.3,5-3.5,7.1-4.6c1-0.6,1.7-0.9,2.1-1.2c1.2-0.8,3.2-2.4,6.2-5c2.6-2.2,10.3-9.3,11.7-10.7l1.2-1.6l0.1-0.1
			C946.9,128.4,946.6,127.1,945.7,126.4"/>
		<path class="st1" d="M744.5,142.4L744.5,142.4c-0.7,0-1.2-0.5-2-2.3l-0.5-0.9c-1.3-2.3-2.9-3.8-4.1-4.9l-1.5-1.7
			c-0.2-0.9,0-2.1,0.5-3l0.8-0.7c1.6-0.3,3.6-1,5-4.7c1.1-2.9,2.1-4.2,4-5.5c0.9-0.6,1.7-0.7,2.6-0.7l1.1,0l1.4,0.1l1.7,0l2.2,0.1
			c1.3,0.4-0.6,1.3-1.1,1.7c-2.8,2-4.3,3.4-4.4,5.1c-0.1,1.7,0.2,3.4,0.5,5c0.2,1.2,0.5,2.4,0.5,3.5
			C751.1,137.6,745.9,142,744.5,142.4 M767.4,223.3l1.5,0.2c2.3,0,4.2-1.5,4.7-3.6c0.2-0.9,0.1-2,0-3.3l-0.1-1
			c-0.1-1.8-1.2-3.9-2.3-6.2c-1.1-2.3-2.3-4.6-2.5-6.5c-0.1-1,0-3.2,0.1-5.4c0.2-3.2,0.4-6.9,0-9.4c-0.7-4.3-2-6.6-5.4-11.7
			c-1.8-2.7-1.7-3.1-1.4-5.2l0.1-0.9c0.7-4.8-1.8-7.8-3.8-10.2l-0.7-0.8c-1.7-2.1-3.6-4.4-6.6-5.5c-0.8-0.3-1.4-1.5-1.3-2.4
			c0.1-0.7,1.2-1.2,2.7-1.8l2-0.9l0.7-0.4c1.6-0.9,2.5-1.4,4.7-3.4c1.1-1,2.5-1.3,3.9-1.7c1.2-0.3,2.6-0.7,3.9-1.5
			c2.8-1.7,6.5-5.8,7.2-8.8c0.6-2.5,0.1-8.3-1.9-10.8l-1.2-1.4c-1.2-1.3-2.1-2.4-2.6-3.9c-0.3-0.8-0.7-1.5-1.2-2.2l-1.4-1.5l0.5-1.6
			c0.6-1,1.5-2.4,1.3-4.1c-0.3-2.6-3.4-5.2-5.8-5.8l-1.6-0.2c-0.8,0-1.6,0.1-2.3,0.3c-0.8,0.1-1.6,0.3-2.6,0.3l-1.2-0.1
			c-1.7-0.2-2.9-0.9-4.1-1.5c-1-0.6-1.9-1.1-3-1.2l-0.5,0c-2.6,0-5,2.1-6.3,4.1c-0.6,0.8-1.4,1.7-2.3,2.6c-1.3,1.3-2.6,2.7-3.5,4.3
			l-1,2c-0.3,0.7-0.9,2.8-1.4,1.1l-0.6-1.6c-0.5-0.7-0.5-3.6-0.6-5.7c0-1.1,0-2.2-0.1-3.3c-0.1-1.9-0.3-5.4-2.5-7.2
			c-0.7-0.6-1.7-0.9-2.7-0.9l-2.1,0.4c-2,0.8-3.1,2.9-2.9,5.5l0.1,1.1c0.2,1.9,0.4,3.7-0.3,6.1c-0.7,2.8-0.5,5.4-0.5,6.8l0,0.6
			c0,0.5-0.1,1.9-0.8,5c-0.3,1.4,0.1,2.8,0.4,4.1l0.4,1.8c0,1.4,0,2.8-0.1,4.2c-0.1,1.2-0.5,2.4-0.9,3.7c-0.6,2-1.3,4.3-1.4,7.3
			c-0.2,5.9,2.5,7.6,5,8.7l0.4,0.2c0.7,0.3,0.8,1,0.9,3.6c0,1.1-0.6,2.2-1.3,3.6c-0.6,1.1-1.2,2.3-1.7,3.8c-1,2.8,0.3,5.4,1.3,7.4
			c0.5,1,1,1.9,1.1,2.7c0.2,1.4-0.2,3-0.6,4.8c-0.3,1.1-0.6,2.3-0.8,3.6c-0.4,2.5,0,4.4,0.4,6.1c0.2,0.9,0.4,1.8,0.4,2.7
			c0,0.9-0.2,2-0.3,3.2c-0.3,1.9-0.6,4-0.3,6.2c0.3,2.4,2.6,3.7,4.7,3.7c1.3,0,2.5-0.5,3.3-1.3c2.4-2.4,2.3-7.2,2.3-11v-0.7
			c0-1.7,0.8-3.4,1.7-5.3c0.8-1.7,1.7-3.5,2-5.6c0.4-2.1,0.3-3.9,0.3-7c0-1.4-0.1-3.2-0.1-5.4c0-0.9-0.2-1.8-0.3-2.6l-0.2-1.8
			c0.1-1.3,0.4-2.8,1-3.9c0.3-0.6,0.8-1,1-0.1c0.2,1,0.2,2.1,0.2,3.1l0,1.1c0.1,1.3,0,2.7,0,3.9c0,1.5,0,2.7,0.1,3.6
			c0.4,2.7,1.6,3.6,3,4.6l1.7,1.4c1.7,1.6,5.9,7.7,7.4,10.3c0.7,1.3,2.1,2.7,3.4,4l1.6,1.8c1.9,2.2,1.6,6,1.5,9
			c-0.2,2.6,0.6,4.3,1.3,5.8l0.7,1.5c0.8,2.1,1.1,3.1,1.8,7.3C761.7,219,764.9,222.6,767.4,223.3"/>
		<path class="st1" d="M842.2,156.3c-0.8-3.2-6.6-5.5-9.4-5.5h-0.1c-2.1,0-2.3-0.3-2.8-1.1c-1.1-1.6-3.7-2.9-6.7-3.4l-1.6-0.1
			c-2,0-3.5,0.6-4.7,1.1l-0.2-1.5c-0.7-2.9-3.7-2.9-5-2.9h-0.1l-1.7,0.1c-1,0.1-2,0.2-2.9,0.4c-0.9,0.2-1.8,0.3-2.4,0.3
			c-1,0-1.1-0.3-1.2-0.5c-0.1-0.7,1-3.6,1.7-5.4c0.7-1.9,1.5-3.8,1.9-5.5c0.3-1.2,0.6-2.4,0.9-3.5c0.9-3.1,1.7-6,1.7-8.7
			c0-2.1,0.8-3.8,1.5-5.4c0.8-1.7,1.6-3.5,1.7-5.8c0.3-4.4-0.9-5.8-2.8-7.4l-0.7-0.6c-0.9-0.8-1.2-1.7,0-3.8c0.5-1,1.2-2,1.7-2.9
			c1.1-1.8,2.5-3.9,3.9-6.9c1.5-3.1,1.7-5.5,0.7-7.1c-0.5-0.9-1.7-1.9-4.2-2h-0.1c-3.6,0-6.8,2.9-8.1,7.2c-0.5,1.5-1,2.3-1.6,3.1
			c-0.5,0.7-1,1.4-1.3,2.5c-0.5,1.6-1.1,2.4-1.8,3.4c-0.6,0.8-1.2,1.7-1.9,3.2c-1.1,2.5-1.5,6.1-1.8,9.4l-0.1,1.3
			c-0.1,0.9-0.8,2.4-1.6,4.2l-0.8,1.8c-1.1,2.5-1.2,6.3-1.1,9.6l0,0.6c0,0.7-0.5,1.7-1.1,2.9c-0.3,0.7-0.7,1.5-1.1,2.3
			c-1.1,2.7-0.8,5.8-0.6,8.1l0,0.2c0.2,1.6-0.2,3-1.1,4.1l-1.8,0.2c-1.1,0-2.4,0-3.8,0.4c-1.3,0.4-2.6,1.2-4.3,2.6l-1.3,0.2l-1.2,0
			c-1.5,0-3.1,0.2-4.4,1.5c-1.3,1.3-1.4,2.6-1.3,3.5c0.3,1.7,1.7,2.8,2.9,3.4c1.4,0.7,2.9,0.7,4.4,0.7l1.3,0l1.7,0.6
			c0.6,0.4,1.4,0.9,2.8,1.5l1.8,0.9c1.2,0.7,2.4,1.3,3.7,1.3l0.2,0l1-0.2l0.8-0.1l-0.3,1.6c-0.3,0.8-0.7,1.5-1.1,2.3
			c-0.5,1-1,2-1.3,2.9c-0.4,1.5-0.4,2.9-0.3,4.1v1.6l-0.4,0.7c-0.6,0.9-1.5,2.3-1.6,4.5c-0.1,1.9,0.8,4.4,2.3,7.6l0.4,0.9
			c0.1,0.3,0.1,0.5-0.4,1.5c-0.4,0.9-1,2-1.3,3.8c-0.8,4.2,0.2,6.4,0.9,7.9l0.3,0.8c0.3,1,0.3,4.9,0.3,7.3v1.5c0,2-0.2,2.6-0.5,4
			l-0.4,1.8c-0.3,1.2-0.5,2-0.6,2.7c-0.4,1.5-0.5,2.1-0.8,4.5c-0.2,1.4-0.4,5.8-0.2,8c0.2,2.8,0.8,5,1.8,6.7l0.9,1.3l0.2,0.2
			c0.5,0.6,1.2,0.9,2,0.9l0.3,0c0.9-0.1,1.7-0.7,2-1.5l0.1-0.2c0.2-0.5,0.6-1.5,0.8-2.9c0.3-1.9,1-4,1.7-5.8l0-0.1
			c0.4-1.1,0.7-2.1,1-2.9l0.4-1.5c0.5-1.8,1.2-3.8,1.2-6.7c0-2.3,0.3-4.6,0.6-7c0.3-2.5,0.6-5.4,0.8-8.9c0.2-5,1.2-6.2,1.8-6.9
			l0.7-1c0.9-1.7,1.3-3.8,1.4-6.5c0.1-2.2-0.3-4.1-0.6-5.4c-0.2-0.8-0.3-1.6-0.3-2c0-0.5,0.3-1.2,0.7-2c0.5-1.2,1.2-2.7,1.5-4.8
			c0.3-2.4,0.1-5-0.2-7.3c-0.2-1.8-0.4-3.5-0.1-4.3l1.1-0.8c0.8,0,1.8,0.4,2.4,1l0.5,0.5c1.5,1.3,3.1,2.7,5.7,2.7h0.1l1.9,0.1
			c0.9,0.1,1.6,0.1,2.2,0.1c1.4,0,2.5-0.2,3.4-0.6l0.6-0.1c0.9,0,2.1,0.8,3.1,1.6c0.9,0.6,1.8,1.2,2.7,1.6c2.1,0.9,4.2,1.3,6,1.3
			c1.6,0,2.8-0.4,3.6-1.2l0.1-0.1l0.8-1.8l-0.7-1.9l-0.1-0.1C839.3,161.3,843.2,159.8,842.2,156.3"/>
		<path class="st1" d="M686.3,173.1l-1.3,0l-1.8-0.1l-1.9,0.3l-1.1,0.5c-1.3,0.3-1-1.9-1.3-2.6l-1.2-1.9l-1-1.4
			c-1.6-2.9-3.4-4.3-5.4-4.3l-0.3,0l-0.6,0.1c-0.5,0-1.7,0-2.2-3c-0.7-3.6-1-8.4-0.1-10.4c0.7-1.8,1.9-2.8,3.1-4c1-1,2.1-2,2.9-3.5
			l0-0.1c0.5-1,0.5-2.2,0.4-5.2c-0.1-1.2-0.1-2.2,0-2.9c0.1-1.4,2.3-4.2,3.6-5l2.4-0.8c0.8,0.4-0.2,2.5-0.6,3
			c-0.4,0.5-0.9,1.3-1.2,2.5c-0.3,1.4-0.4,3-0.3,4.9c0.2,2.1,1,3.6,2.9,5l0.9,0.7c0.7,0.6,1.5,1.3,2.7,1.9c2.3,1.2,2.3,1.2,1.7,4.4
			l-0.1,0.6c-0.2,0.9-0.6,1.9-1,2.8c-0.9,2.1-2,4.4-1.3,7.5c0.4,1.8,1.1,3.3,1.6,4.5c0.4,0.9,0.7,1.7,0.9,2.4
			c0.2,0.9,0.5,1.8,0.5,2.7l-0.3,1.2L686.3,173.1z M708.3,157.6c-0.6-0.9-1.3-2.1-2.5-3.4c-0.7-0.7-1.1-1.6-1.5-2.8
			c-0.3-1.2-0.3-2.6,1.1-5.4l0.8-1.8c0.3-0.8,0.7-1.6,1.2-2.5c1.1-2.3,1-5.4,1-7.5l0-1.3c0.1-4.3-1.2-6.8-2.1-8.4l-0.4-0.8
			c-0.2-0.4-0.3-1.2-0.4-2c-0.2-1.8-0.5-3.9-2.2-5.6l-1.5-1.5c-1.8-1.9-3.7-3.9-5.8-4.7c-1.1-0.5-1.9-0.8-2.6-1.2
			c-1.7-0.8-2.9-1.3-5.8-1.9c-0.9-0.1-1.7-0.2-2.6-0.2h-0.1c-4.7,0-8.2,2.4-9.9,3.9c-2.2,1.9-6.8,7.2-8.2,10
			c-0.7,1.3-1.3,1.7-2.4,2.3l-1.5,0.8l-0.3,0.2c-1.9,1.3-4.1,2.7-6.1,6c-1.2,2.1-1.7,4.9-2.1,7.3c-0.2,1.5-0.5,2.9-0.8,3.6l-1.3,1.7
			c-1.4,1.6-3.3,3.8-3.6,7.5c-0.3,3.7,1.2,5.8,2.4,7.5l0.8,1.1c1.4,2.4,2.3,7.2,1.8,10.1c-0.4,2.7-0.6,8.9-0.2,12.6
			c0.4,3.1,2.6,5.3,5.3,5.3l1.1-0.1l1.2-0.1c1.7,0,2.8,0.9,4.1,1.8l1,0.7c1.2,0.8,2.5,1.1,3.5,1.4l1.6,0.6l0.3,0.7
			c0.5,1.3,1.3,3.5,4.1,4.2l1.3,0.2c1.8,0,3.7-0.8,5.1-1.4l1.2-0.5l0.6,0l1.4,0.2l1.9,0.3l1.7-0.2c4.9-1.3,11.4-7.5,13.1-9.9
			l0.8-1.2c1.1-1.6,1.8-2.5,3.6-4.4c1.8-1.7,5.3-6.8,5.7-10.6c0.4-3.8-0.3-6-3.1-9.7L708.3,157.6z"/>
		<path class="st1" d="M652.2,248c-0.2-0.9-0.3-1.7-0.4-2.5l-0.2-1.4c-0.2-0.9-0.3-1.8-0.4-2.7c0-1.2-0.1-2.4-0.2-3.2
			c-0.4-3.4-1.7-5.4-3.7-8.5l-0.8-1.2c-2.1-3.3-2.9-5.5-1.2-12.5c1.6-6.6,0.8-9.2-2.4-13c-2.8-3.3-2.9-4.2-2.6-7.5l0.1-1.4l0-0.3
			c0.4-3.4,0.7-6.3-0.3-8.8l-1.1-2.2c-1.1-2.2-2.5-4.9-2.8-8.1c-0.2-2.2,0.6-3.9,1.7-6c0.8-1.6,1.7-3.5,2.3-5.9
			c1.6-6.4,1.1-9.8,0.3-12.5c-0.8-2.7-0.9-2.9-0.1-6.2c1.3-5.9,1.6-9.1,0.7-11l-1.4-1.6c-0.8-0.7-1.7-1.5-2.1-4
			c-0.1-1,0-2.2,0.2-3.3c0.2-1.1,0.3-2.2,0.2-3.3c-0.1-0.8-0.6-1.5-0.8-2.2c-0.3-0.8-0.1-1.6-0.1-2.4c0.1-1.5,0.2-3.5-0.1-5.7
			c-0.5-3-1.6-5.8-2.6-8.3l0-0.1c-0.3-0.8-0.7-1.6-0.9-2.3c-0.4-1.2-0.4-4.2-0.4-7.3c0-3.5,0-7.5-0.5-11.6
			c-0.7-5.6-2.8-13.4-3.9-17.2l-0.4-1.3c-0.7-2.5-0.4-7.3,0-12.3l0.1-1.8c0.3-5.4,1.3-9.8,3-13.9c0.5-1.2,1.2-2.9,2.1-5
			c2-4.6,4.8-11,6.1-14.7c1.2-3.4,0.1-6-0.3-6.7c-1-1.7-2.2-2.1-2.9-2.2l-0.3,0l-0.7,0.1c-2.3,0.6-5,3.5-6.2,6.6
			c-1.1,2.9-1.9,3.8-4.5,7.1c-0.9,1.1-1.6,1.9-2.2,2.6c-1.5,1.7-2.7,3-3.4,5c-0.3,1-0.5,2.6-0.7,4.6c-0.3,3.1-0.8,7.2-2.1,10.4
			c-1.1,2.6-3.5,5.7-5.6,8.5c-1.6,2-2.9,3.8-3.6,5.1c-1.4,2.8-4.1,11.5-5,16c-0.3,1.6-0.5,2.9-0.7,4c-0.3,1.8-0.4,2.9-0.8,3.9
			c-0.8,1.9-2.3,6.2-2.9,10c-0.4,2.4-1.4,4.4-3.7,6.9l-0.8,0.8c-2.2,2.4-4.8,5.1-6.2,10.9c-0.3,1.4-0.7,2.7-1.1,4
			c-0.5,1.7-1,3.5-1.5,5.6c-0.4,1.5-0.5,4.1-0.7,7.6l-0.1,2.1c-0.1,1.4,0,2.9,0,4.6c0.1,2.2,0.1,4.5-0.1,6.7
			c-0.1,1.1-0.2,2.2-0.3,3.3c-0.1,1.5-0.3,2.9-0.5,4.2c-0.4,2.1-0.9,4.4-1.7,6.4l-0.4,0.9l-0.2-0.9l0-0.4c0.2-1.8,0.4-3.9-0.7-5.5
			c-1.2-1.7-1.5-3.5-1.7-6.2c-0.1-1.1-0.2-2.6-0.4-4.2c-0.2-1.6-0.4-3.5-0.6-5.6c-0.1-0.6-0.1-1.4-0.2-2.2l0-0.1
			c-0.1-0.9-0.2-1.9-0.3-2.5c-0.2-3.1,0-7.1,0.2-10.4c0.1-2.9,0.2-4.8,0.1-5.9c-0.1-1.4-0.7-2.7-1.7-3.8l-1.4-1.1l-1.1-0.8l0.1-2.5
			c0.1-1.9,0.2-4,0.1-5.6c-0.2-2.8-1.2-4-2.3-5.4l-0.7-0.9c-0.9-1.3-0.5-5.6-0.2-8.8c0.1-0.9,0.2-1.8,0.2-2.6
			c0.4-5.6-0.8-7.1-3.6-9.4l-0.1-0.1c-1.7-1.4-1.7-1.9-1.7-5c0-3.1,1.1-9.5,2.5-13.2c0.7-1.9,4.4-11.5,4.6-15.4
			c0.1-1.5-0.3-2.8-1.3-3.8c-0.9-1-2.2-1.6-3.5-1.6h-0.1l-0.2,0l-1.4,0.4c-0.9,0.6-1.9,1.9-3.7,4.4c-0.6,0.8-1.1,1.5-1.5,2.1
			c-0.8,1-4.5,5.9-4.8,10.3c-0.2,3.9-1.4,7.5-3,8.9c-2.7,2.5-4.7,6.1-5.3,9.5c-0.2,1-0.1,2.1-0.5,3.1l-0.4,0.7l-0.5,0.1l-0.2-1.5
			l-0.3-1.6l-0.1-0.3c-0.2-1-1-1.8-1.9-2l-0.7-0.1l-2,0.9l-0.2,0.3l-1.3,1.8l0.1-1.7l0.4-2l0-0.6c0.1-1.1-0.5-2.2-1.6-2.7l-1.1-0.2
			l-2,0.9l-0.4,0.4c-0.9,1-2.4,3.3-4.1,8.2c-0.7,2-0.9,4-1.3,6.6c-0.1,0.6-0.1,1.5-0.1,2.4c0,0.8,0,1.9-0.1,2.4
			c-0.1,0.7-0.5,2.2-0.9,3.8l0,0.1c-0.2,1-0.5,1.9-0.7,2.8c-0.3,1.4-0.7,2.9-1.1,4.5c-0.5,2-1,4.1-1.4,5.7c-0.5,2.2-1.4,4.9-2.4,7.8
			c-1,2.9-2.1,5.9-2.9,9.1c-1.7,6.6-0.8,14.3-0.5,17.6c0.2,1.3,0.4,2.6,0.6,4.1c0.5,2.8,1,5.7,0.9,8.1c-0.4,7.2-1.4,12.1-3,14.6
			c-0.6,1-1.6,2.2-2.6,3.5c-2,2.6-4.3,5.5-5.5,8.3c-1.7,4-1.3,9.7-1.1,13.1l0,0.3c0.1,1.9,0.9,3.9,1.7,5.9c0.7,1.8,1.4,3.7,1.9,6
			c1.1,5.2-0.4,11.6-1.2,14.8l-0.2,0.8c-0.5,2.1,0.4,4.3,1.1,6.3c0.3,0.9,0.7,1.8,0.8,2.4c0.1,0.9,0,2.1-0.1,3.9
			c-0.1,1.9-0.4,4.8-0.4,8.7c-0.1,8,0.6,12.8,4.5,13.4l0.4,0l1-0.2c1.2-0.5,1.8-1.6,2.8-3.6l0.3-0.7c0.5-0.9,1.1-2,1.2-3.2
			c0.2-2.2,0.7-4.1,1.3-6.2l0-0.1c0.3-1.1,0.6-2.3,0.9-3.6c0.3-1.2,0.8-2.4,1.4-3.5c1-2.1,2.2-4.6,2.3-8.4c0.1-2.2-0.4-6.3-1.1-9.9
			c-0.2-1-0.5-1.8-0.7-2.6l-0.4-1.3c-0.5-2.7,0.4-6.1,2.9-10.9c1.3-2.6,2.6-3.7,3.9-4.7c1.5-1.2,2.9-2.4,3.8-5.5
			c0.4-1.5,0.2-3.5-0.1-5.9c-0.3-2.8-0.7-6.2-0.2-9.7c0.3-1.7,0.8-4.4,1.3-6.7c0.7-3.3,1.2-5.6,1.3-6.8l0.1-1.2
			c0.2-2.3,0.5-5.7,1.1-9.4c0.4-2.5,0.9-4.7,1.3-6.8c0.6-3,1.2-5.5,1.3-7.6c0.1-2.7-0.6-5.5-1.2-8.2c-0.5-2.1-1-4.1-1-5.7
			c-0.1-4,1.2-8.6,3.5-16.3l0.3-0.8c0.4-1.3,0.8-2.3,1.4-3.6l1.3-1.4l0.3,1.7c0.1,0.8,0.1,1.3,0.1,2.2c0,1.9-0.2,3.7-0.3,5.6v0.1
			c-0.2,2-0.3,3.8-0.2,5c0.3,4.4,4.4,7.4,4.9,7.7c1,0.7,1.6,2.6,1.9,4.1c0.4,1.7,1.9,2.7,3.2,3.6c1.1,0.7,2.1,1.4,2.6,2.4
			c0.5,0.9,1.2,4,1.8,9.9c0.6,5.6,1.7,7.8,2.9,10.3c0.4,0.8,0.7,1.5,1.1,2.3c1.5,3.5,2,5.8,2,8.2c-0.1,2.4,0.8,4.4,1.4,6l0.6,1.6
			c0.2,0.7,0,2-0.2,3.4c-0.3,2.2-0.8,5-0.1,7.9c0.7,3.3,2.9,5.4,6.1,5.7c1.5,0.2,2.7,1,3.2,1.5c0.3,0.4,0.5,2.5,0.6,4
			c0.2,3.4,0.5,7.6,2.6,11.1c1,1.8,2.4,3,4,3.6l1.7,0.3c2.1,0,3.8-1.4,4.5-3.5c0.4-1.2,0.3-3,0.3-6c0-3.1-0.1-7,0.6-10
			c0.7-3.1,2.1-6,3.4-8.5c0.7-1.4,1.4-2.7,1.8-3.9c0.8-2.1,0.9-5.8,1-9.6c0.1-3.1,0.1-6.3,0.6-8.7c0.3-1.9,1.9-3.8,3.6-5.9
			c1.9-2.4,4.3-5.3,5.6-9.1c2.5-7.2,2.2-9.1,1.1-13.5c-0.9-3.5,0.1-8.4,1.2-14.1l0.2-1.1c0.4-2.1,1.1-6.2,1.6-6.2l0.2,3
			c-0.1,5-0.2,7.3,1.2,9.2c0.4,0.7,1.1,1.3,2.2,2.4c1.8,1.7,4,3.9,4.4,5.8c0.3,1.7-0.4,3.6-1.3,5.9c-0.6,1.8-1.4,3.7-1.8,5.9
			c-0.4,2.1-1.1,3.8-1.7,5.3c-0.4,0.9-0.7,1.7-0.9,2.4c-0.5,1.8-0.4,5.4,0,10.5c0.3,3.2,1.2,5.7,2,7.7c0.4,1.1,0.8,2.2,1,3.1
			c0.2,1.2,0.1,4.5,0,7.8c-0.1,3.7-0.2,7.1,0,8.8c0.4,3.1,2.7,11.6,7,16.7l0.7,0.9c1.7,2,2.1,2.5,2.1,4.5c0,0.6-0.3,1.4-0.6,2.2
			c-0.4,1.1-0.8,2.3-0.8,3.7l-0.3,1.7c-0.4,1.6-0.8,3.8-0.7,6.2c0.3,4.4,3,5.6,4.6,6.3l1.1,0.6l0,1.6c-0.1,3.1-0.1,6.3,0.7,8.6
			c0.9,2.3,3.4,3.9,5.6,5.3c1.3,0.8,2.8,1.8,3.1,2.4c0.4,0.8,0,4.1-0.3,6.1c-0.3,2-0.8,5.9,2.2,6.6l0.8,0.1c0.9,0,2.1-0.4,2.8-1.9
			l0.4,1l0.1,0.2c0.5,1,1.5,3.1,3.6,3.1l1.8-0.6c0.9-0.6,1.4-1.7,1.4-2.9c0-0.8-0.3-1.4-0.4-1.9L652.2,248"/>
		<path class="st1" d="M445.5,181.7l-0.8,0.2c-1.1,0-2.4-0.9-3.1-1.8c-0.5-0.6-1.4-2.9-0.3-4.6c0.9-1.5,1-2.5,1-3.5
			c0-0.3,0.3-0.9,1.1-1.6l1.4-0.7c1.7-0.6,2.7-1.6,3.6-2.5l0.3-0.3l1.9-1.2l0.2,0c1,0.2,1.3,1.8,1.4,2.8c0.3,2.7,0.1,4.8-0.7,6.4
			l-1.6,1.9l-0.5,0.5l-1.3,1.6C447.5,180,446.6,181.1,445.5,181.7 M376,156.5l-0.8-0.3L375,156l-1.1-1l-1.9-0.5l-1.8,0.3l-1.2,0.4
			l0-1.5c0.3-1.6,0.9-3.2,1.8-4.7c1.3-2.3,2-4.8,2.6-6.6l0.9-1.9l1,1.2l0.2,2l-0.1,0.7c-0.3,1.6-0.7,4.3,0.5,7.5
			c0.3,0.9,0.5,1.9,0.5,2.8l-0.1,1.3L376,156.5z M467.5,120.9l0.7-1.9c0.6-1.5,1.2-3.1,1.4-4.7c0.3-2.4-0.8-4.4-2.8-5.1l-1.8-0.3
			l-2,0.4c-2.9,1.1-4,3.8-4.9,5.9l-0.1,0.3l-0.6,1.3c-0.7,1.4-1.5,3-1.7,4.9l-0.1,1.7c0,1,0,2.1-0.3,2.8l-0.5,1.2
			c-0.7,1.8-1.4,3.6-1.5,5.8c-0.1,0.9-0.1,1.7-0.3,2.2l-0.3,0.7c-0.6,1.5-1.2,3.1-2.2,5c-0.7,1.2-1.1,3.3-1.7,6.2
			c-0.3,1.8-0.9,4.6-1.3,5.1c-0.5,0.6-1.3,1.1-2.2,1.6c-0.7,0.4-1.5,0.9-2.3,1.5l-1.4,1.4l-0.8,0.8c-1.4,0.5-4,2.4-5.2,4.6
			c-1,1.7-2,2.5-3.3,3.4c-1.5,1.1-2.3,3.3-2.4,5.1c-0.1,1-0.7,2.2-1.2,3.3l-0.9,1l-0.5-1.8c0-0.9,0.6-1.7,0.8-2.6
			c0.2-0.8,0.3-1.7,0.3-2.6l0-1.5l0-1.9l0.9-1.9c0.3-0.8,0.6-1.8,0.9-2.8c0.3-1.5,0.4-3,0.4-4.5l0.1-2l0.1-1.2
			c0.1-1.2,0.3-2.7,0.6-4.2c0.2-1,0.5-2.1,0.7-3.1c0.8-3.4,1.7-6.9,1.6-9.6c0-1.7-0.3-3.2-0.8-4.3l-0.1-0.1
			c-0.3-0.7-1.2-2.5-3.3-2.7l-0.2,0c-2.6,0-3.6,2.5-4.2,3.8l-0.2,0.5l-0.7,1.2c-0.7,1.1-1.5,2.4-2,3.9c-1.6,4.8-3,8.5-3.9,10
			c-0.6,0.9-0.9,2-1.2,3l-0.5,2.1l-0.3,1.5l-0.6-1.4c-0.3-1.1-0.7-2.2-1.2-3.1c-1-1.6-2.3-2.5-3.9-2.5l-1.4,0.1l-0.6,0.1
			c-0.4,0-0.6-0.3-1.3-2.1c-0.3-0.8-0.5-1.9-0.8-3.2c-0.4-2.1-0.9-4.4-1.8-6.4c-1.4-2.9-3.7-3.9-5.5-3.9c-0.8,0-1.6,0.2-2.1,0.6
			l-0.3,0.2c-1.2,1.1-1.3,2.8-1.1,5.5l0,0.9c0,1.3-0.3,5-0.7,6.3c-0.3,1-0.2,2.4,0.1,6.1c0.2,1.8,0.3,3.7,0.3,4.7
			c-0.1,2.9-1.3,4.7-2.4,6.3l-0.5,0.8l-0.4,1.2l-0.6,0.4l-0.8-1.7l-1.1-2c-0.9-1.2-1.2-3.8-1.5-5.8c-0.2-1.6-0.4-3.2-0.8-4.2
			c-1.1-2.6-1.8-4.9-2-7.2c-0.1-0.7-0.1-1.4-0.2-2.3c-0.2-2.9-0.6-6.8-1.6-9.5c-0.6-1.5-0.6-3.3-0.6-5.4c0-1.9,0-4-0.5-6.1
			c-0.2-1-0.5-2.3-1.5-3.4c-0.7-0.7-1.6-1.1-2.6-1.1c-2.5,0-4.3,2.5-5.1,3.7l-0.1,0.1c-1.4,2-1.9,4.3-2.4,6.4l-0.2,0.8
			c-0.5,2-0.9,4-1.4,5c-0.3,0.7-0.6,0.8-1.5,0.8l-0.9,0l-1.9,0.3c-2.1,0.8-3.5,3.9-4.3,6.3c-0.2,0.8-0.7,1.9-1.2,3.2l-0.5,1.1
			c-0.5,1.1-1.1,2.4-1.4,3.8c-0.5,2,0.1,3.8,0.6,5.3l0.2,0.7c0.5,1.7,1.3,4.6,0.9,5.3c-0.3,0.6-0.5,1.4-1,3.2
			c-0.6,2.2-1.5,5.3-2.8,8.5c-0.9,2.3-1.3,2.9-2.1,4.3c-0.4,0.7-0.9,1.6-1.6,3c-2.4,4.5,0.5,9.5,1.4,11.1l0.2,0.4
			c0.1,0.3,0.1,1.6,0,2.5c-0.1,2.2-0.3,4.5,1,5.9c0.7,0.8,1.8,1.3,2.9,1.3c1.4,0,3.1-0.8,3.6-3.1c0.3-1.4,1.2-2.6,2-3.9
			c0.5-0.8,1-1.5,1.4-2.3c0.8-1.6,0.7-2.6,0-4l-0.5-1.4c-0.4-1.3,1.2-3.2,2.3-4.4l0.3-0.3c1.5-1.7,1.6-3.1,1.7-4.4
			c0.1-0.9,0.2-1.9,0.7-3.3c0.4-0.9,0.8-1.8,1.3-2.6c0.3-0.6,1.1-2.5,2-2.1l0.5,0.5l1.7,1.4l0.9,0.7c0.9,0.7,2.4,3.9,3,6.4
			c0.3,1.2,0.8,2.9,1.3,4.7l0.6,2l0.3,1l0.1,0.5c0.3,1.2,0.7,2.6,1.7,3.9c0.5,0.7,0.9,1.5,1.2,2.5c0.5,1.5,1.2,3.3,2.3,4.7
			c1.1,1.3,2.3,1.6,3.1,1.6c2.4,0,4.4-2.3,4.7-5.3c0.1-1.3-0.1-3-0.4-4.9c-0.2-1.5-0.5-3.2-0.6-5l-0.1-1.7c-0.1-1.6-0.3-3.1-0.1-5
			l0-1.5l0.6-0.5l1,1.7l1,1.5c0.2,0.4,0.2,2,0.1,3.1c0,1.5,0,2.8,0.2,3.9c0.4,1.7,1.6,3.3,3.1,4.1l1.8,0.4c3.7,0,5.6-4.8,5.6-6.9
			c0-0.8-0.2-1.5-0.4-2l-0.1-0.5l0.2-0.8c0.2-0.5,0.4-1.1,0.5-2.1c0.3-2.7-0.1-6-1-7.7l-0.6-1.6v-1c0.2-0.9,1,0.1,1.3,0.4l1.3,1.1
			l1.6,1.4l0.6,1l1.3,2.1l0.9,1.2l1,1.5c0.6,1.4,1.5,2.9,2.4,4.4c1,1.8,2.1,3.6,2.6,5.1l0.5,1.4c0.8,2.3,1.7,5,4.5,5.2l0.3,0
			c3.2,0,3.5-3.2,3.7-4.7c0.1-0.7,0.2-1.5,0.3-2.4l0.5-1.8c0.5,0,0.5,2.8,1.3,4.7c0.6,1.4,1.4,2.7,2.8,3.8c1.5,1.2,2.7,1.6,4.1,2
			c0.8,0.2,1.6,0.5,2.7,0.9l0.6,0.4c1,0.6,2.7,1.6,4.9,1.7l0.7,0l1.6,0.1h0.1c1.1,0,1.9-0.1,2.6-0.3c1.6-0.6,3.2-2.1,4.8-4.7l1-1.8
			l0.1,0.8l0.2,1.1c0.2,1.2,0.5,2.5,0.8,4c0.3,1.5,0.9,3.1,2.4,4.6c1.4,1.3,3,2.7,5.2,2.7c1.2,0,2.3-0.4,3.3-1.2
			c2.2-1.8,3.1-4.1,2.7-6.9c-0.3-2.3-0.8-4.5-1.4-6.6c-0.9-3-2.1-5.6-2.9-7.4l-0.4-0.9c-1.2-2.7-0.9-7.4-0.8-10.4
			c0-0.8,0.1-1.5,0.1-2.1c0-1-0.1-2.1-0.2-3.2c-0.2-2-0.4-4.1,0-6.5c0.3-1.5,0.8-3.9,1.7-7.2c0.5-2,1.1-4,1.6-5.7l0.1-0.3
			c0.3-0.9,0.5-1.7,0.7-2.3c0.9-3.3,0.5-5.7-1.4-8.2c-1.1-1.5-0.7-3.9-0.3-6.1C466.5,124.2,467.1,122.1,467.5,120.9"/>
		<path class="st1" d="M268.4,68.7c-2,0-3.4,1.5-4.4,2.5l-0.1,0.1l-1.1,1.4l-1.9-1.1l-0.1-0.1c-0.5-0.2-1.2-0.7-2.2-0.7l-2,0.6
			c-0.8,0.6-1.2,1.4-1.5,1.9c-1.1,2.6-0.7,4.9-0.3,6.9l0.3,1.8c0.2,1.4,0.3,2.9,0.4,4.6c0.3,4.5,0.1,8-0.5,11.3l-0.4,2
			c-0.4,2.3-0.9,5.2-1.5,7.7c-0.8,3.4-2,6.8-2.9,9.5c-0.4,1.1-0.7,2.1-0.9,2.9c-0.8,2.7-1,5.2-1.1,7.2c-0.1,1.6-0.2,3-0.6,3.7
			c-1.3,2.2-3.6,7.3-4.3,11.8c-0.3,1.6,0.2,3.4,1.3,4.7c0.9,1,1.9,1.5,3,1.5c0.7,0,1.7-0.2,2.6-1.1l1.1-1.2l0.1-0.1
			c0.7-0.8,1.6-1.9,2.7-3.1l0.9-1l1.8-1.1c0.7,1.2-0.7,4-1.2,5c-0.8,1.9-0.7,3.4-0.6,4.6c0.1,0.8,0.1,1.5-0.1,2.2
			c-0.3,0.7-0.4,1.6-0.7,3.5c-0.2,1.3-0.5,3.7-0.9,4.3c-1.1,1.2-2.3,3.6-2.3,5.8c0,1.4,0.8,2.3,1.3,2.9l0.9,1.7
			c0,1.1-0.9,9.1-1.8,12.3c-0.4,1.6-0.7,3.7-1,5.8c-0.3,2-0.5,4.3-0.9,5.1c-1,2-2.9,8-3.4,11.7c-0.2,1.6-0.3,3.3,0.3,4.8
			c0.3,0.8,1.1,1.4,1.5,2.2c0.4,0.9,0.2,1.9,0.7,2.8c0.5,1,1.6,1.6,2.7,1.6c2.4,0,3.2-2.4,3.7-3.7l0.1-0.4c0.8-1,1.4-2.1,1.8-3.3
			c0.4-1.1,0.6-2.1,0.8-2.9c0.2-1.2,0.4-2,1-2.9c1.3-1.9,3-6.4,3.9-11.2c0.4-2,0.8-4.6,1.3-7.3c0.8-4.4,1.5-8.9,1.9-10.6
			c0.3-1.4,1.5-0.4,2.6-0.4l1-0.1c1.6-0.5,2.6-1.9,3.2-2.9l0.3-0.4l0.6-0.2l0.3,0c0.3,0.1,0.6,0.2,1.2,1.6l0.2,0.6
			c0.5,1.7,1.2,3.7,3.1,4.3c1.1,0.3,1.6,1.1,3.8,5.4c0.3,0.7,0.7,1.4,1.1,2.2c1.6,3.2,2,5.5,2.4,7.7c0.2,1.1,0.3,2.2,0.7,3.4
			c0.8,2.7,2.7,4.4,4.2,5.7l1.7,1.6c2,2.4,3,5.7,3.8,8.4c0.4,1.3,0.8,2.5,1.2,3.4c0.9,2.1,2.7,4.7,4.1,6.6c0.5,0.8,1,1.5,1.3,1.9
			c0.8,1.3,1.5,5.5,1.8,7.2l0,0.1c0.2,1.1,0.7,2,1.2,2.9c0.2,0.5,0.4,2.1,0.5,3l0.1,1.1l0,0.8c0,2.5,0.3,4.2,1.3,5.3
			c0.7,0.7,1.7,1.1,2.8,1.1c2,0,3.7-1.5,4-3.5c0.1-0.5,0.2-2.1,0.2-3.8l0.1,0.1c0.3,0.3,0.9,0.9,1.6,1.2l1.3,0.3
			c0.9,0,1.8-0.4,2.4-1.2c0.8-1,1.5-2.6,0.1-9.1l0-0.1c-0.2-1.1-0.9-2.9-1.9-5.6c-1.3-3.5-3.1-8.4-4.2-13c-1.2-4.8-1.6-8-2-10.9
			c-0.2-1.7-0.4-3.3-0.8-5.1c-0.6-2.9-1.9-4.8-3.1-6.6c-0.8-1.1-1.6-2.3-2.3-3.7c-0.8-1.7-0.9-3-1-4.4c-0.1-1.7-0.3-3.5-1.6-5.6
			c-1.7-2.6-4.4-3.2-6.8-3.6c-1.3-0.3-2.6-0.5-3.4-1.1c-1.5-1-2.4-2.3-3.6-4.1c-0.8-1.1-1.5-2.3-2.6-3.6c-2.7-3.3-4.2-5.3-5.1-7.2
			l-0.2-0.6c-0.3-0.9-0.6-1.9-1.3-2.7c-1.3-1.3-2.3-2.7-2.8-4.1c-0.6-1.6,0.6-3.8,1.9-5.4c0.3-0.3,1.5-0.6,2.5-0.9
			c1.2-0.3,2.6-0.6,3.8-1.3l0.3-0.2c4.1-2.1,8.1-4.2,10-6.1c0.9-0.9,2.6-3.2,3.1-5c0.9-3,1.9-5.6,3.1-7.8c1-1.8,3.1-3,5.5-4.3
			c1.2-0.6,2.4-1.3,3.7-2.1c4-2.7,4.9-4,6.8-7.8c1-1.9,1.7-2.5,2.6-3.1c0.7-0.5,1.4-1,2.2-2c0.5-0.6,1.8-1.6,2.9-2.5l0.8-0.5
			c1.3-0.7,3.4-1.8,3.7-4.2c0.2-1-0.1-1.9-0.7-2.7c-1.1-1.2-2.6-1.2-3.2-1.2c-1.2,0-2.8,0.3-4.3,0.9c-2.5,0.9-10.6,6-12.8,7.8
			c-0.7,0.6-1.6,1.4-2.5,2.3c-1.7,1.7-3.7,3.5-5,4.3c-1.4,0.8-2.1,1.6-3.1,2.7c-0.7,0.8-1.5,1.7-2.9,3c-1.5,1.4-2.2,1.6-2.7,1.6
			l-0.5,0l-0.8,0l-1.3,0.1c-2.2,0.6-4,1.5-7.1,4.6c-3.2,3.3-6,4.3-8.3,5c-0.8,0.2-1.6,0.7-2.3,1.2l-1.3,1.1l-0.7-1.9l-0.2-0.9
			c-0.2-1-0.3-1.6-0.3-2.4c0-0.5,0.3-1.1,0.8-2c0.8-1.5,1.8-3.4,2-6.6c0.1-1.8,0.2-3.6-0.2-5.3c-0.2-0.9-0.9-1.6-1.3-2.4
			c-0.4-0.9-0.3-1.8-0.3-2.8c0-1,0-2.2-0.1-3.4c-0.2-2.2-0.7-3.2-1.1-4l-0.4-1.2c0-0.3,0.4-1.5,0.8-2.6l0.7-1.8
			c1-2.6,2.4-5.9,2.3-9.3c-0.1-4.8-0.5-8.5-4.2-9.4L268.4,68.7z"/>
		<path class="st1" d="M217.8,111.5c-3.3,0-6,0.7-8.4,2.2l-1.6,0.9c-2.2,1.2-4.7,2.6-5.2,5.6l-0.2,1.3c-0.2,2-0.4,2.3-1.4,2.6
			l-0.3,0.1c-6.7,1.9-8.4,3.1-9.1,3.9l-0.3,0.3c-1.2,1.1-3.6,3.3-3.4,7.1c0.1,2.1-0.3,3.7-1.5,6.7c-0.4,0.8-0.7,1.5-1.1,2.1
			c-1,1.8-1.8,3.4-1.6,6.8c0.1,2.7-0.9,4.2-2.2,6.1l-0.9,1.5l-1.2,1.6c-0.8,1.1-1.7,2.3-2.4,3.7c0,0-1.8,4-0.7,6.3l0.1,0.1
			c0.8,1.5,2,1.7,2.7,1.7c0.9,0,1.4-0.1,1,1c-2.1,5.8-2,7.9-1.6,9.1c0.4,1.2,1.4,2.8,4.3,2.8l2.2-0.2l1.7-0.1c1.6,0,2.5,0.6,3,1.9
			l-0.2,1.3c-0.3,1.2-0.8,3,0.3,5c0.9,1.5,1.7,2.1,2.4,2.7c0.6,0.5,1,0.8,1.5,1.6c0.1,0.3,0.2,1.6,0.3,2.4c0.3,3.7,0.7,8.3,4.3,8.4
			l0.1,0c3.4,0,5.1-3.8,6.7-7.5c0.4-0.8,0.7-1.7,1.1-2.4c0.9-1.7,1.7-3.6,2.9-5.1c0.6-0.7,1.3-1.6,2.3-1.9c1.2-0.3,2.3,0.7,3.5,0.7
			c0.8,0,1.4-0.2,1.9-0.4c1.3-0.5,2.6-1.5,3.9-2.4c1.3-0.9,2.7-1.9,3.8-2.3c0.2-0.1,0.5-0.1,1.5-0.1h0.1c0.7,0,1.6,0.1,2.5,0.1
			c0.9,0.1,1.8,0.1,2.6,0.1h0.1l0.9,0c3.8-0.2,5.3-2.3,6.7-4.3l0.7-1c2.2-3,2.3-7.1,0.1-9c-0.6-0.5-1.4-0.8-2.3-0.8
			c-1.5,0-3.2,0.9-5,2.8c-0.5,0.5-1.4,0.8-2.5,0.8c-1.2,0-2.3-0.3-3.1-0.8l-1.6-1c-3.9-2.4-5.4-3.2-6.5-3.3l-0.4,0
			c-2.1,0-3.3,2.5-5.5,1.6c-0.8-0.3-1.9-0.8-3.3-0.8l-0.8,0c-1,0.1-2,0.8-3.8,2.1c-1.1,0.8-3.2,2.3-4.2,2.3h-0.1
			c-0.4-0.1-1.5-0.4-2-1.4c-0.5-0.8-0.5-1.9,0.1-3.2c0.6-1.5,1.6-3.1,2.6-4.8c2.4-3.9,3.9-6.5,3.4-8.9c-0.5-2.5-2.3-3.7-3.5-4.5
			l-1-0.7c-0.5-1-0.3-3.7,3.5-7.2c1.8-1.6,3.6-3,5.2-4.1c2.1-1.5,3.9-2.9,5.2-4.5c0.8-1,1.5-1.5,2.2-1.9c0.7-0.5,1.3-1,1.7-1.8
			l0.1-0.2l0-2.1l-1.3-1.6c0-0.8,1.4-1.1,2-1.3c1-0.4,2.1-0.7,3.2-0.7c2.2,0,9-0.3,11.7-1.3c1.6-0.6,4.9-2.8,5.9-5.4
			c0.5-1.3,0.4-2.5-0.2-3.6c-0.6-1-1.5-1.5-2.1-1.8c-1.3-0.6-2.6-0.9-4.1-0.9c-1.5,0-2.9,0.3-4.3,0.6l-0.8,0.2l-1.2,0.3
			c-0.9,0.2-1.8,0.4-2.6,0.4l-1.7-0.8l-0.1-0.1C221.5,112.9,219.9,111.5,217.8,111.5"/>
		<g>
			<path class="st1" d="M159.8,109.1L159.8,109.1l-1.9,0.2c-1.4,0.3-2.3,1.2-2.9,1.8l-0.5,0.5l-0.6,0.1l-1.8-0.5
				c-0.3-0.2-0.9-0.4-1.7-0.4l-0.5,0c-0.9,0.1-1.6,0.6-2.2,1.4c-1.1,1.7-0.7,4.4-0.3,5.9l0.5,1.6l0.4,1.3c-0.1,1.2-0.6,3.1-1,4.5
				c-0.6,2.2-0.9,3.3-0.8,4.1c0.2,2.4,1.9,3.3,2.9,3.8l0.8,0.5c0.3,0.7,0.1,3.9-0.6,5.5l-0.6,1.2c-1.4,2.9-2.8,6-2.8,8.6
				c0,2.6,1.9,4.6,3.3,6.1l1.2,1.5c0.2,0.6,0.5,3.6-0.5,10.7c-0.4,3.2,0,5.1,1,7.2c0.4,0.9,0.3,1.8,0.1,3.3l-0.2,1.5
				c-0.2,1.8,0.7,3.4,1.6,5l1,1.9c0.4,1,0.1,5.5,0,8.4c-0.1,2.5-0.3,4.9-0.2,6.4c0.2,4,2.7,7.4,5.5,7.7l0.1,0h0.1h0.1h0
				c3,0,3.7-3.1,4-4.8l0.1-0.5c0.4-2,0.3-3.2,0.2-5.8c-0.1-1-0.1-2.2-0.2-3.8c-0.2-4.4,0.5-5.9,1.4-7.9l0.5-1.2
				c1.5-3.6,3.2-8.5,2.9-11.2c-0.2-2.2-1.1-4-1.9-5.6c-0.5-1.1-1.1-2.2-1.2-3.1c-0.3-1.8,1.6-4.5,2.9-6.4c1.4-2,2-3,2.2-4l0-0.1
				c0.3-3.3-1.2-5.9-4.1-7.4c-2.1-1.1-2.6-3.2-2.8-7.1c-0.1-1.9,0.5-4.3,1.2-6.8c0.4-1.4,0.8-2.9,1.1-4.4c0.8-4.2-0.3-6.6-1.3-9
				l-0.3-0.7c-0.5-1.2-0.3-2.2-0.1-3.3c0.1-0.7,0.3-1.5,0.3-2.4C164.5,110.7,162.7,109.1,159.8,109.1"/>
			<path class="st1" d="M151.8,65.8L151.8,65.8c-3.2,0-6.2,2.3-7.2,5.6c-0.6,2.1,0.2,3.8,0.9,5.2l0.7,1.9c-0.1,0.6-0.9,2.1-1.6,3.4
				c-1.2,2.2-2.5,4.8-2.7,6.9c-0.3,4.2,2.3,6.6,3.9,7.4l1.2,0.4l0.5,0.1l0.8,0.7l0.2,0.3c1,1.4,2.4,3.3,5.5,3.3
				c3.5,0,7.5-1.8,7.5-10.1c0-2.8,0.5-4.4,1-6l0-0.1l0.5-1.6c0.2-0.9,0.9-3.9-0.7-6.2c-1.1-1.6-2.5-1.8-3.2-1.8
				c-0.8,0-1.5,0.3-2,0.5l-0.3,0.1l0.2-1.9c0.1-1,0.3-2,0.2-3c-0.2-2.5-1-4.8-5-5L151.8,65.8z"/>
		</g>
		<path class="st1" d="M69.2,25.9c2.6,0,4.9,0.3,6.9,1.1c1.8,0.7,3.3,1.6,4.8,2.5c0.9,0.5,1.7,1,2.5,1.4c1.8,0.9,3.8,1.9,5.7,2.6
			c1.6,0.6,3.3,1.7,5,2.9c1.3,0.8,2.6,1.7,3.7,2.3c0.5,0.2,1.1,0.3,1.9,0.3c0.8,0,1.7-0.1,2.5-0.2c0.8-0.1,1.8-0.2,2.8-0.2h0.1h0.2
			c0.5,0,1.9,0,3,1c0.9,0.8,1.3,2,1.4,2.6c0.3,1,0.4,2,0.4,2.9l0.1,0.7l0.2,1.5c0.1,0.6,0.4,1.1,1.9,1.1c0.7,0,1.4-0.3,2.3-0.7
			c1.2-0.5,2.6-1,4.3-1l0.5,0c1.5,0.1,2.9,0.7,4.3,1.7c1.5,1.1,3.5,2.9,4.1,5.3c0.7,3,0.3,7.3,0,10.5c-0.1,1.5-0.3,3.3-0.2,3.7
			c0.2,0.9,0.9,1.5,2,2.4l0.1,0.1c2.3,1.9,3.5,4.4,3.5,7.4c0,2.3-0.6,4.5-1.2,6.8c-0.6,2.1-0.3,4.1-0.1,6.5c0.2,1.9,0.5,4,0.4,6.3
			c-0.3,5.2-3,8.3-4.9,10.4l-1.3,1.7c-0.4,0.7-0.3,1.8-0.2,3.1c0.1,1.4,0.2,3.1-0.2,4.9c-0.8,3.3-2.3,4.4-3.8,5.3l-0.5,0.3
			c-0.1,0.3-0.3,1.3-0.4,2.1c-0.6,4.1-2,10.1-6.3,14.4c-1,1-2,1.7-3,2.1c-1.2,0.6-2.4,0.7-3.6,0.9l-0.6,0.1
			c-1.3,0.2-2.5,0.3-3.5,0.7c-1.1,0.4-1.8,1-2.3,2.2l-0.5,0.9c-0.6,1.2-1.2,2.6-2.3,3.7c-1.2,1.2-2.5,1.9-3.7,2.5l-0.8,0.4
			c-1.2,0.6-1.4,0.9-0.7,1.9c0.8,1.1,1,0.7,2.3,0.7l0.4,0c2.8,0.3,4.6,3,5.6,4.5c0.8,1.2,1.4,2.4,1.9,3.5l0.7,1.4
			c0.5,0.9,0.9,2.2,1.7,2.9l1.2-0.9l1.6-0.4l1.6,0.4c1.3,0.6,2,1.9,2.5,2.7l0.1,0.2c0.5,0.8,1,1.7,1.5,2.9l0.3,0.5
			c0.4,1,0.5,1.5,1.7,1.2c0.9-0.3,1.8-0.7,2.7-0.8l0.7,0c1.4,0,2.9,0.5,4.4,1.3c4.9,2.9,7,7.8,8.7,11.9c0.6,1.5,1.4,3.2,1.8,3.7
			l1.4,1c1.8,1.2,4.6,3,6.2,5.2c1.6,2.2,2.5,5.3,3.2,8.1c0.3,1.2,0.6,2.2,0.9,3.1c0.8,2.4,3.4,3.4,4.8,3.8c2.5,0.7,3.8,3.4,5.4,6.6
			l0.5,0.9c1.4,2.7,4.2,4.1,5.5,4.7l0.3,0.1l0.5,0.2c0.7,0.3,1.8,0.6,2.8,1.3c1.7,1.2,3.1,3,3.9,4.3c1.1,1.7,1.3,3.6,1.5,5.8
			c0.1,0.8,0.1,1.6,0.2,2.4c0.2,1.4,2.1,3.4,4,5.3c1.3,1.3,2.6,2.6,3.8,4.1l0.4,0.5c2.3,2.9,5.9,10.8,6.3,13l0.4,1.7
			c0.4,1,1.6,4.4,1.2,7l0.3,2l0,0.1c0.6,2,1,4-0.1,5.5c-0.6,0.8-1.5,1.2-2.4,1.2l-0.4,0c-1.5-0.2-2.4-1.4-2.8-2l-0.1-0.1
			c-0.7-0.9-1.2-1.8-1.7-2.7l-0.2-0.3l-1-1.6c-1.1-1.9-2.5-2.4-4.3-3.1c-0.8-0.3-1.6-0.6-2.4-1c-2.3-1.2-3.1-2.8-3.9-4.7
			c-0.3-0.6-2.1-3-3.3-4.6c-2-2.7-2.8-3.9-3.1-4.4c-1.2-2.1-3.1-5.4-2.8-8.7l0.2-1.1l0.1-0.8l-0.7-1.3c-0.8-1-2-1.7-3.2-2.5
			l-0.1-0.1l-0.4-0.3l-2.2-1.4c-1.7-1-3.2-1.9-4.5-3.2c-2.3-2.2-4.3-6.4-5.6-8.8c-0.4-0.8-0.7-1.4-0.9-1.8c-1-1.7-1.5-1.8-3-1.9
			l-1.4-0.2c-3.1-0.5-6.3-3.5-7.4-6l-0.5-1c-0.9-2-3.6-8-4.8-8.9l-0.4-0.1c-0.6,0-1.6,0.4-2.6,0.8c-0.8,0.3-1.7,0.7-2.6,1l-1.7,0.3
			c-2.6,0-4.3-1.9-5.2-5.8c-0.4-2-1.6-4-2.6-5.8c-0.5-0.9-1-1.8-1.6-2.7c-0.8-1-1.6-1-2.8-1.1c-0.9,0-1.8,0-2.7-0.4
			c-0.7-0.3-1.4-0.9-2.3-1.8c-0.9-0.9-2-2-2.8-2H98c-0.4,0-0.6,0.2-1.5,0.9l-1.7,1.3l-1.8,0.7l-0.3,0c-0.8,0-1.7-0.3-2.4-0.8
			c-1.7-1.3-2.8-3.4-3.3-4.4c-0.8-1.8-4.5-7.7-6.7-8.6l-0.4,0l-1.8,0.2c-0.9,0.2-2,0.4-3.1,0.4c-1.1,0-2-0.2-2.8-0.5
			c-2.1-0.9-4.2-3.1-6.1-5c-0.9-0.9-2.6-3.4-4-2.8c-1,0.4-2.1,1.9-2.4,2.9c-0.6,2.2,1.1,5.8,2.3,8.2l0.2,0.4c0.4,0.8,0.9,1.7,1,2.9
			c0.2,1.9-0.5,3.5-1.1,4.8l-0.6,1.6c-0.1,0.5,0.4,1.3,0.8,2.2c0.8,1.6,1.8,3.5,1.9,6.2c0.2,3.8-1.2,6.5-2.3,8.7
			c-0.7,1.3-1.4,2.6-1.5,3.9v1.4c0.2,1.2,0.9,2.4,1.7,3.7l1.3,2l0.8,1.2l0.5,0.7c0.6,0.9,1.4,2,1.8,3.3c0.8,2.8-0.2,5.3-0.9,7.4
			c-0.3,0.9-0.7,1.8-0.8,2.5c-0.2,1-0.2,2-0.1,3.1c0.2,1.9,0.6,3.4,1.3,4.5l0.5,0.6c1.1,1.5,3.3,4.3,0.1,8.9c-0.9,1.3-2,2.5-3,3.5
			L63,255l-1.3,1.7c-0.1,0.5,0,1.2,0.1,2L62,260c0.2,2.1,0.3,4.2,0.4,6.3c0,0.9-0.3,2.8-1.5,4c-0.7,0.7-1.6,1.1-2.5,1.1l-1.8-0.5
			c-1-0.5-1.8-1.4-2.4-2.2c-0.6-0.8-1.1-1.8-1.5-2.8c-0.8-2.1-0.7-4.5-0.6-6.9c0-1.1,0.1-2.2,0-3.2c-0.1-1.2-1.8-2.4-3.1-3.3
			l-0.3-0.2c-0.7-0.5-1.8-1.2-2.4-2.4c-0.4-0.9-0.4-1.8-0.4-2.3c0-1,0.2-1.9,0.3-2.8c0.2-1.6,0.4-3.1,0.1-4.4
			c-0.3-1.2-0.3-2.3-0.3-3.3l-0.1-1.6l-0.8-1.3l-1.5-1.7c-0.8-1.1-1.4-2.4-1.7-3.8c-0.6-2.4-1-3.6-2.7-6.1c-2.2-3.2-2.2-5.6-2.2-9.4
			v-0.2c0-3.8,0.9-5.4,1.9-7l0.9-1.6c0.6-1.9,0.1-4.1-1.8-8.4c-0.7-1.5-1.6-2.6-2.4-3.6l-0.2-0.2c-0.6-0.7-1.3-1.6-1.7-2.7
			c-0.8-2.1,0-4,0.3-4.6c1.4-3,2-6.1,1.9-9.3c-0.2-5.6-2.7-12.2-4.2-16.2c-0.3-0.8-0.6-1.5-0.8-2.1c-1-2.9-0.5-5-0.2-6.6l0.3-1.9
			c-0.2-1.5-0.9-2.4-2.3-4c-0.8-0.9-1.7-1.9-2.6-3.3c-2.3-3.4-1.7-6.1-1.3-8.2l0.2-1.4c0.2-1.8-0.3-3.3-1.5-5.3
			c-1.1-1.8-0.8-3.4-0.5-4.4l0.1-0.8l-0.4-0.7c-0.5-0.8-1.3-2-1.1-4.2c0.1-0.8,0.3-1.8,0.7-3c0.6-2,1.4-4.7,1.3-7.6
			c-0.1-3.4-2.5-5.9-5.1-8.6c-2.1-2.2-4.4-4.6-5.6-7.7c-1.6-4.3-0.5-8.7,0.4-12.5c0.6-2.3,1.2-4.8,1.1-6.8c-0.3-3.5-1.1-4.2-2.8-5.6
			c-0.7-0.6-1.7-1.4-2.7-2.5c-1.4-1.5-2.2-3.5-2.4-5.9c-0.2-2-0.1-4.7,1.3-6.8c0.8-1.2,1.8-1.6,2.4-1.7l0.7-0.1
			c1.4,0,2.2,0.9,3.5,1.3c1.2,0.3,2.7-2,3.5-2.8l0.4-0.5l1.4-1.4l2-1.4l0.4-0.2c1.7-1.1,3.3-2,4.9-2.6c0.7-0.3,1.7-0.7,2.8-0.8
			l0.7,0c1,0,1.8,0.2,2.5,0.5l0.2,0.1c1.5,0.4,3.1,0.9,4.6,1.1l0.9,0.1c3.6,0,7.5-2.8,10.5-5.2c0.9-0.7,1.8-1.4,2.7-2.1
			c1.9-1.4,3.4-2.6,4.8-3.6l0.8-0.6c1.2-0.9,2.6-2,4.6-2.5c1.6-0.5,3.2-0.6,4.6-0.7C67.7,26,68.5,25.9,69.2,25.9 M48.7,72
			c-1.4,0-2.7-0.2-3.9-0.5c-0.8-0.1-1.8-0.4-2.6-0.3c-1.5,0.4-1.5,3.7-1.6,4.8l0,0.5c-0.1,0.8,0.2,1.7,0.9,2.7l1.1,1.3l0.2,0.2
			c0.5,0.6,1.6,1.7,1.6,3.3c0,0.9-0.2,1.7-0.4,2.3l-0.1,0.4l0,2l0,1c0,1.9,0.1,3.8,0.5,5.7c0.2,0.8,1.2,1,1.8,1.5l1.2,1.3l0.8,1.7
			l1.2,1.5c1,1.6,0.8,3.4,0.7,4.4c-0.2,1.6-0.5,2.8-1.2,3.9l0.4,1.6l0.2,0.8c0.2,0.5,1,1,1.8,1.5l1.3,0.9c3,2.2,2.6,6.7,2.3,9.7
			l-0.1,1.7l0.6,1.7l0.7,0.5l0.3,0.1c0.6,0.3,1.6,0.8,2.3,2c1.3,2.2,0.1,4.4-0.5,5.5l-0.1,0.3l-0.5,1c-0.6,1.2-1.4,3.1-1,4.5
			l0.4,0.3l0.3-0.1c2-1.6,3.7-3.1,6.3-3.2l0.1,0c2.4,0,4.1,1.5,5.5,2.8l1.5,1.2c1-0.2,2-1.4,3-2.5l1.6-1.7c2.6-2.4,5.8-4.1,9.2-4.9
			c0.9-0.2,1.8-0.4,2.6-0.5l1.4-0.3c1.5-0.3,2.5-0.8,3.6-2.4c0.7-1.1,1.4-4.3,2.1-9.7c0.2-2,0.9-3.7,1.9-5l1.4-1.4l1.5-1.4l0.9-1.9
			c0.7-1,1.6-1.6,2.3-2.1l0.8-0.6c0.4-0.7,0.4-1.9,0.4-3.1v-0.5c0-0.7,0-1.5,0.1-2.4c0.1-1.2-0.7-2.2-1.9-3.8l-0.3-0.4l-0.7-1.2
			c-0.5-1.3-0.4-2.8,0.4-4l1.3-1.4c0.5-0.5,1.1-0.7,1-1.5c-0.1-0.8-1.1-1.2-1.6-1.8c-0.7-0.8-1.5-1.5-2.2-2.3
			c-1.3-1.3-2.7-2.7-3.7-4c-1-1.3-1.5-2.7-1-4.3c0.5-1.7,0.9-2.8-0.1-4.4c-0.5-0.8-1.5-2.2-2.6-2c-0.8,0.2-1.6,0.8-2.4,1.1
			c-0.9,0.4-1.9,0.6-2.9,0.6c-0.9,0-1.7-0.2-2.4-0.5c-1.7-0.8-2.9-2.3-3.8-3.9c-0.4-0.8-0.8-1.6-1.2-2.4c-0.3-0.7-0.3-1.7-1.1-2
			l-2.2,0.3c-0.9,0.1-1.7,0.2-2.6,0.2l-0.7,0c-1.5-0.1-2.7-0.3-3.8-0.5c-1.2-0.2-2.2-0.4-3.5-0.4l-0.9,0c-1.4,0.1-3.4,1.8-5.4,3.5
			c-1.8,1.5-3.7,3.1-5.7,4C51.5,71.7,50.2,71.9,48.7,72L48.7,72"/>
	</g>
	<g>
		<path class="st2" d="M943.9,128.4l-0.6-0.4c-1.2-0.2-2.3,0.6-3.3,1.1l-1.6,0.8c-1.2,0.5-3,1.3-5.6,2.4l-1.6,0.7
			c-2.2,0.9-3.7,2.4-5.3,4c-0.7,0.7-1.4,1.4-2.2,2c-2.6,2.2-4.8,3.3-7.8,4.7c-1.4,0.7-2.5,1.6-3.6,2.5c-1.1,1-2.3,2-3.8,2.7
			c-0.8,0.4-1.8,0.6-2.9,0.9c-2,0.5-4.5,1.1-7.3,2.8c-2.3,1.4-4.4,1.8-6.6,2.3c-1,0.2-2,0.4-3.1,0.7c-2.6,0.7-3.3,1.9-4.3,3.5
			l-0.7,1.2c-1.2,1.8-4.9,4.9-6.4,4.9l-0.8-0.2c-1.2-0.8-0.5-2,0.3-3.5c0.6-0.9,1.3-2,1.4-3l0.6-1.8c0.5-1.4,1.1-3,0.5-4.8
			c-0.7-2.2-2.1-3.8-3.3-5l-0.9-1c-0.9-1.1-1.1-2.3-1.1-4.1c0-0.7-0.7-1.6-1.3-2.3c-0.6-0.7-1.1-1.5-1.4-2.3
			c-0.5-1.6-0.3-4.6-0.1-7.7c0.1-1.5,0.1-2.9,0.1-4.1c0-3.6-0.6-9.1-1.1-11.1c-0.3-0.9-1.4-1.9-2.5-2.9c-1-0.9-2-1.8-2.6-2.9
			c-0.2-0.4-0.5-1.2-0.9-2.5c-0.4-1.1-0.8-2.4-1.3-3.8c-0.5-1.2-1-2.4-1.4-3.5c-1-2.5-1.6-3.8-1.7-4.6l0-0.2c-0.2-1.8-0.7-5.7-2-8.5
			c-0.7-1.4-1.2-2.9-1.7-4.6c-0.7-2.1-1.4-4.2-2.4-6c-0.7-1.3-1.3-2.6-1.9-3.7l-1-2c-0.4-0.7-1.1-2.2-1.3-0.6
			c-0.1,0.7,0.2,2.2,0.4,3.6c0.2,1,0.3,2,0.4,3c0.2,2.5-0.1,13.1-0.1,13.2c-0.1,2.4-1.8,2.6-2.6,2.7l-0.4,0.1l-0.1,0l0,0.1
			c-0.4,1-0.5,3.8-0.5,6.4c0,2.3,0.6,4.1,1,5.8c0.4,1.3,0.7,2.5,0.8,3.8c0,2.1,0.1,12.6,0.4,17.9c0.2,2.8,1.3,5.5,2.4,8.1
			c0.6,1.5,1.2,2.9,1.6,4.3c1.1,4,1.3,10.3,1.2,11.7c-0.1,1.5,1,2.4,1.5,2.9l0.1,0.1l0.7,0.2l0.6,0l0.7,0c1.3,0,2.1,0.7,2.3,2
			c0.2,1.5-1.6,9.6-2.9,13.3c-0.6,1.8-1.1,3.1-1.5,4.3c-0.6,1.5-1.1,2.8-1.5,4.3c-0.8,2.7-0.6,3.8-0.3,4.9c0.1,0.6,0.3,1.2,0.2,2.1
			l0.1,1.2c0.1,1.4,0.4,3.2-1,4.3c-0.8,0.6-2.9,1.4-6.3,2.7l-1.8,0.7c-0.9,0.4-2.2,0.7-3.5,1c-3.4,0.9-6.7,1.9-7.1,3.2
			c-0.2,0.6-0.1,0.9,1.5,1.5c0.9,0.3,1.7,0.7,2,1.6l-0.3,1.6c-0.3,0.5-1.1,0.9-3.1,2.1c-1.5,0.9-3.3,1.9-5.2,3.2
			c-3.5,2.4-7.1,6-7.8,7.9c-0.4,1.1,0.1,2,1.1,3.5c0.7,1.1,1.4,2.3,1.5,3.7c0,1.1-1.1,3.5-6.8,8.9c-1.3,1.2-2.7,2.3-4.1,3.5
			c-1.5,1.2-2.9,2.4-4,3.4c-1,1-1.1,1.8-1.1,2.5l-0.6,1.7l-1.6,1c-1,0.5-2.4,1.2-4.1,2.5c-1.5,1.2-2.5,2.9-3.4,4.7
			c-0.7,1.3-1.4,2.5-2.3,3.4c-1.7,1.6-4.2,2.9-6.8,4.3c-1.4,0.7-2.9,1.5-4.3,2.3c-3.1,1.9-4.4,3-6.9,5.3l-1.2,1
			c-1,0.9-2.1,1.8-3.1,2.7l-0.2,0.2c-2.1,1.8-4.3,3.7-4.7,4.3c-2.5,3.6-2.5,4.8-2.5,4.9c0.2,0.8,0.7,1.2,1.5,1.2l0.4,0
			c1.7-0.2,2.7-1.3,3.9-2.5l0.2-0.2c0.7-0.7,1.6-1.5,2.5-2.2c1-0.8,2.1-1.6,3-2.6l0.2-0.2c1.9-1.9,5.5-5.6,9.6-7.2
			c1.8-0.7,4.7-1.3,7.7-1.9c3.1-0.6,6.2-1.2,7.9-2c1.8-0.8,6.5-4.8,9.7-8.2c1.1-1.1,2.1-2.3,3.2-3.5c1.9-2.2,3.6-4.1,4.8-5l1.1-0.8
			c1.7-1.1,3.8-2.6,4.6-4.9c0.7-2.1,3.3-6.2,5.4-9.4c0.7-1.1,2.6-3.2,5-5.9l1.4-1.6c0.9-0.9,1.6-1.8,2.2-2.5
			c0.4-0.4,0.6-1.3,0.8-2.3c0.3-1.1,0.6-2.5,1.3-4.1c1.3-2.8,4.9-6,10.8-9.7c1.4-0.9,3.2-2.2,5.1-3.6c1.7-1.2,3.4-2.5,5.2-3.7
			c3.3-2.2,4.1-4,5-5.9l0.6-1.2c1.6-3,8-8.6,12.3-10l1-0.3c3-1,6.5-2,10.5-5.5c3.7-3.2,4.4-5.4,5-7.1l0.9-2.1c1-1.6,5.8-4.6,8.2-5.4
			c2.2-0.8,7.5-4.1,8.9-5.8c1.2-1.6,4.5-3.4,7.9-5.3c0.8-0.4,1.6-0.9,1.9-1c1.1-0.7,3.1-2.3,5.9-4.8c2.6-2.2,10.2-9.2,11.6-10.6
			L943.9,128.4z"/>
		<path class="st2" d="M773.8,151.5c0.9,0.4,2,0.4,3.3,0.5l1.4,0c1.3,0.1,2,0.5,2.9,1c0.6,0.3,1.3,0.8,2.5,1.3l1.9,1
			c0.9,0.5,1.7,1.2,2.7,0.9c0.7-0.2,1.3-0.7,2.1-0.7c1.5,0,2.2,1.2,2.3,3.4c0,1.5-0.8,3.2-1.7,4.8c-0.5,0.9-0.9,1.8-1.1,2.5
			c-0.3,1.1-0.3,2.2-0.2,3.2l0,2l-0.8,1.8c-0.5,0.8-1.1,1.7-1.2,3.2c-0.1,1.5,1.4,4.9,2.1,6.3l0.4,1c0.6,1.5,0,2.6-0.5,3.6
			c-0.4,0.8-0.8,1.7-1.1,3.1c-0.6,3.4,0.1,5,0.7,6.3l0.5,1.2c0.4,1.3,0.4,4.2,0.4,8l0,1.5c0,2.3-0.2,3.2-0.6,4.7l-0.4,1.8
			c-0.3,1.2-0.5,2.1-0.6,2.7c-0.4,1.5-0.5,1.9-0.8,4.2c-0.1,1.3-0.3,5.5-0.2,7.5c0.2,3,0.9,4.7,1.4,5.6l0.7,0.8l0.8-2.2
			c0.3-2.1,1.1-4.4,1.8-6.3c0.4-1,0.7-2,0.9-2.8l0.5-1.6c0.5-1.7,1.1-3.5,1.1-5.9c0-2.4,0.3-4.8,0.6-7.2c0.3-2.5,0.6-5.3,0.8-8.7
			c0.2-5.4,1.3-7.2,2.4-8.5l0.4-0.5c0.7-1.4,1-3.1,1.1-5.4c0-1.9-0.3-3.5-0.5-4.9c-0.2-1-0.4-1.9-0.3-2.7c0.1-1,0.5-1.9,0.9-2.9
			c0.5-1.1,1-2.4,1.3-4.1c0.3-2.1,0-4.5-0.2-6.6c-0.2-2.3-0.4-4.1,0-5.4c0.6-1.6,1.9-2.5,3.6-2.6c1.4,0,3,0.6,4.2,1.6l0.5,0.5
			c1.5,1.3,2.4,2.1,3.9,2.1l2.2,0.1c0.8,0.1,1.5,0.1,2,0.1c0.9,0,1.7-0.1,2.2-0.4l1.7-0.4c1.8,0,3.3,1.1,4.7,2.1
			c0.8,0.6,1.5,1.1,2.2,1.3c1.8,0.7,3.6,1.1,5,1.1l1.9-0.6l-1.2-1.3l-0.1-1.8c0.4-0.6,1.1-0.9,2.2-1.3c2.3-0.9,3.6-1.6,3.3-2.6
			c-0.3-1.1-1.9-1.9-2.8-2.4c-0.9-0.5-1.9-0.8-2.9-1c-1-0.2-2-0.1-2.9-0.2c-1.5-0.2-2.5-0.9-3.3-2.1c-0.6-0.8-2.4-1.9-4.9-2.2
			l-1.2-0.1c-2.2,0-3.7,1-4.7,1.6l-1.4,0.6L815,151c-1.1-0.4-1-1.5-0.8-2.4l0.1-2c-0.1-0.5-0.4-0.9-2.6-0.9l-1.6,0.1
			c-0.9,0.1-1.8,0.2-2.7,0.4c-1,0.2-2,0.3-2.9,0.3c-1.8,0-3-0.7-3.6-2.1c-0.7-1.4,0.1-3.7,1.7-7.5c0.7-1.8,1.4-3.7,1.8-5.2
			c0.3-1.2,0.6-2.3,0.9-3.6c0.8-2.9,1.6-5.7,1.6-8c0-2.6,1-4.6,1.8-6.4c0.7-1.6,1.4-3.1,1.5-4.8c0.2-3.4-0.5-4.1-1.9-5.3l-0.7-0.7
			c-2.6-2.4-1.5-5.1-0.6-7c0.6-1,1.2-2.1,1.8-3.1c1.1-1.8,2.4-3.7,3.7-6.7c1.4-2.9,1.1-4.2,0.8-4.6l-2-0.8c-2.4,0-4.6,2.1-5.6,5.4
			c-0.6,1.9-1.4,3-2,3.9l-1,1.8c-0.7,2-1.4,3-2.1,4.1c-0.5,0.8-1.1,1.5-1.6,2.8c-1.1,2.3-1.4,6.3-1.6,8.5l-0.1,1.4
			c-0.2,1.3-0.8,2.8-1.8,4.9l-0.8,1.8c-1,2.3-0.9,6.7-0.9,8.6l0,0.7c0,1.4-0.6,2.6-1.3,4.1c-0.3,0.7-0.7,1.4-1,2.1
			c-0.9,2.1-0.6,4.7-0.4,6.8l0,0.2c0.3,2.9-0.8,4.9-1.7,6c-0.9,1.1-2.4,1.1-3.8,1.1c-0.9,0-2,0-3.1,0.3c-0.9,0.2-1.9,0.9-3.2,2
			c-0.9,0.8-1.9,0.9-3,0.9l-1.2,0c-1.1,0-1.9,0.1-2.5,0.8l-0.5,1.1L773.8,151.5z"/>
		<path class="st2" d="M744.9,145l-0.5,0h0c-2.5,0-3.6-2.3-4.3-3.9l-0.4-0.7c-1.1-2-2.5-3.2-3.6-4.3c-1.1-1-2-1.8-2.3-2.9
			c-0.4-1.6-0.1-3.6,0.8-5.1c0.7-1,1.6-1.7,2.6-1.9c0.7-0.1,1.9-0.3,2.9-3c1.3-3.4,2.7-5.2,5.1-6.8c1.6-1,2.9-1.1,4-1.1l1.3,0l1.2,0
			l1.7,0c1.6,0,5.1,0,5.6,2.5c0.3,1.7-1.1,2.7-2.9,4c-1.1,0.8-3.3,2.4-3.4,3.2c-0.1,1.4,0.2,2.8,0.5,4.2c0.3,1.3,0.5,2.6,0.5,4
			C753.7,139.2,747,144.7,744.9,145 M751.4,147.2l1.7-0.7l0.7-0.4c1.4-0.8,2.2-1.2,4.3-3.1c1.6-1.4,3.4-1.9,5-2.3
			c1.2-0.3,2.2-0.6,3.2-1.1c2.5-1.6,5.5-5.1,6.1-7.2c0.5-2.1-0.1-6.9-1.4-8.5l-1.1-1.3c-1.2-1.4-2.4-2.8-3.1-4.7
			c-0.4-1.1-1-1.8-1.6-2.3c-0.5-0.5-1-1.1-1.2-1.9c-0.3-1.3,0.4-2.4,1-3.3c0.5-0.8,1-1.6,0.9-2.4c-0.2-1.3-2.2-3.2-3.8-3.6l-0.9-0.1
			l-1.8,0.2c-0.9,0.2-1.9,0.3-3.1,0.3l-1.5-0.1c-2.3-0.3-3.8-1.1-5.1-1.9l-1.9-0.9l-0.2,0c-1.2,0-3,1.2-4.2,3
			c-0.7,1-1.6,1.9-2.5,2.9c-1.2,1.2-2.4,2.5-3.1,3.8c-0.5,0.9-1.1,2.1-1.7,3.4c-1.8,3.6-2.3,4.7-3.3,4.8l-0.3,0l-1.1-0.4
			c-0.6-0.6-0.6-1.6-0.6-2.9c0-1.1,0-2.6-0.4-3.2c-0.9-1.3-1-3.6-1.1-7.2c0-1.1,0-2.1-0.1-3.2c-0.1-1.6-0.3-4.3-1.6-5.3l-2.2-0.1
			c-1.1,0.5-1.4,1.7-1.3,2.9l0.1,1.1c0.2,2.1,0.4,4.2-0.3,7c-0.6,2.3-0.4,4.7-0.4,6l0,0.7c0,1.1-0.3,3-0.8,5.6
			c-0.3,1.4,0.8,3.5,0.8,5.2c0,1.5,0.1,3-0.1,4.6c-0.2,1.4-0.6,2.8-1,4.2c-0.6,2-1.2,4-1.3,6.6c-0.2,4.6,1.7,5.5,3.5,6.3l0.5,0.2
			c2.3,1.1,2.3,3.5,2.3,6c0,1.8-0.8,3.2-1.6,4.8c-0.5,1-1.1,2.1-1.6,3.4c-0.6,1.8,0.3,3.5,1.2,5.3c0.6,1.2,1.2,2.3,1.3,3.5
			c0.3,2-0.2,3.8-0.7,5.8c-0.3,1.1-0.5,2.2-0.8,3.4c-0.3,2,0,3.5,0.4,5.2c0.2,1,0.5,2.1,0.5,3.3c0,1.2-0.2,2.3-0.4,3.6
			c-0.3,1.8-0.5,3.6-0.3,5.4c0.1,1,1.3,1.3,2.1,1.3l1.5-0.5c1.6-1.6,1.6-6,1.5-9.2l0-0.7c0-2.3,1-4.4,2-6.4c0.7-1.6,1.5-3.2,1.8-4.9
			c0.3-1.9,0.3-3.4,0.2-6.5c0-1.4-0.1-3.2-0.1-5.5l-0.3-2.1c-0.1-0.9-0.3-1.7-0.2-2.4c0.2-2.9,1.6-8.4,5.5-6.8
			c2.2,0.9,1.8,5.2,1.9,7.1c0.1,1.4,0,2.8,0,4c0,1.3,0,2.5,0.1,3.2c0.2,1.6,0.8,2,1.9,2.9l1.9,1.6c2,2,6.4,8.4,7.8,10.9
			c0.6,1,1.8,2.3,3,3.5l1.7,1.9c2.6,3.1,2.3,7.6,2.1,10.9c-0.1,2,0.4,3.1,1.1,4.5l0.7,1.8c0.9,2.4,1.3,3.5,1.9,7.8
			c0.6,3.8,3.2,6.4,4.5,6.8l0.8,0.1c1.1,0,1.9-0.6,2.1-1.6c0.1-0.5,0-1.6-0.1-2.3l-0.1-1.1c-0.1-1.2-1.1-3.2-2-5.2
			c-1.2-2.5-2.5-5-2.8-7.4c-0.1-1.3,0-3.4,0.1-5.9c0.2-3.1,0.4-6.6,0-8.8c-0.6-3.8-1.8-5.8-5-10.6c-2.3-3.4-2.2-4.6-1.8-7.1l0.1-0.9
			c0.5-3.7-1.3-5.8-3.2-8.1c-1.8-2.2-3.5-4.6-6.2-5.6c-2-0.7-3.3-3.2-3-5.3C747.4,148.8,749.6,147.9,751.4,147.2"/>
		<path class="st2" d="M687.7,175.4l-1.6,0.4l-1.5-0.1l-1.6-0.1l-1,0.1c-0.4,0.2-1.8,0.9-2.7,0.9c-1.7,0-2.4-1.4-2.7-3.1
			c-0.2-1.5-0.6-1.9-1.2-2.7l-1.2-1.7c-1-1.9-2.2-3-3.1-2.9l-0.9,0.1c-1.8,0-4.1-0.9-4.8-5.2c-0.3-1.4-1.4-8.4,0-11.9
			c1-2.2,2.4-3.6,3.7-4.8c1-0.9,1.8-1.7,2.3-2.8c0.2-0.5,0.2-2.2,0.1-4c-0.1-1.2-0.1-2.4,0-3.3c0.3-2.4,3.1-5.9,4.8-7
			c0.8-0.5,2.3-1.3,3.6-1.3l1.8,0.6c0.8,0.7,1.3,1.7,1.2,2.8c-0.4,3.7-1.6,3.5-2.1,5.4c-0.3,1.3-0.3,2.7-0.2,4.1
			c0.1,1.3,0.6,2.2,1.8,3l1.1,0.9c0.7,0.6,1.3,1.1,2.2,1.6c4.2,2.2,3.6,3.9,2.9,7.8c-0.2,1.3-0.8,2.4-1.2,3.5
			c-0.9,1.9-1.6,3.6-1.1,5.7c0.4,1.6,1,2.9,1.5,4.1c0.4,1,0.8,1.9,1,2.8C689.3,170.3,690.2,173.7,687.7,175.4 M706.1,159
			c-0.5-0.9-1.1-1.8-2.1-2.9c-1-1-1.7-2.3-2.2-4c-0.5-2.1-0.2-4.2,1.2-7.2l0.8-1.7c0.3-0.8,0.7-1.6,1.2-2.6c0.9-1.7,0.8-4.4,0.7-6.2
			l0-1.4c0.1-3.6-1-5.5-1.8-7l-0.5-0.9c-0.4-0.8-0.5-1.8-0.7-2.8c-0.2-1.5-0.4-3.1-1.4-4.1l-1.5-1.6c-1.6-1.7-3.3-3.5-4.8-4.1
			c-1.2-0.5-2.1-0.9-2.8-1.2c-1.4-0.7-2.4-1.2-5.2-1.7l-2.1-0.2c-3.9,0-6.8,2-8.2,3.2c-2,1.7-6.3,6.7-7.5,9.2
			c-1,2.1-2.3,2.7-3.6,3.4l-1.2,0.7l-0.3,0.2c-1.9,1.2-3.6,2.4-5.2,5.2c-1,1.7-1.4,4.2-1.8,6.4c-0.3,1.8-0.6,3.3-1.1,4.3
			c-0.4,0.8-1,1.5-1.7,2.3c-1.3,1.5-2.7,3.2-3,6.1c-0.3,2.7,0.8,4.1,1.9,5.7l0.9,1.3c1.7,2.9,2.7,8.4,2.1,11.9
			c-0.4,2.5-0.6,8.5-0.2,11.9c0.2,1.8,1.3,3,2.7,3l0.5-0.1l1.8-0.2c2.5,0,4.2,1.2,5.6,2.3l0.9,0.7c0.8,0.6,1.8,0.8,2.8,1.1
			c1,0.3,1.9,0.5,2.7,1.1l1,1.7c0.5,1.3,1,2.3,2.4,2.7l0.6,0.1c1.2,0,2.8-0.7,4.1-1.2c0.8-0.3,1.4-0.6,1.9-0.7l1-0.1
			c0.9,0,1.5,0.2,2,0.3l1.2,0.2l1-0.2c4.1-1.1,10.1-6.7,11.7-8.9l0.8-1.2c1.1-1.6,1.9-2.7,3.9-4.7c1.5-1.5,4.6-6.1,4.9-9
			c0.3-2.9,0-4.5-2.6-7.8L706.1,159z"/>
		<path class="st2" d="M649.2,245.9c-0.2-1.2-0.6-2.8-0.6-4.4c0-1.2-0.1-2.3-0.2-2.9c-0.3-2.8-1.3-4.4-3.3-7.4l-0.8-1.2
			c-2.6-4.1-3.4-7-1.6-14.6c1.4-6,0.7-7.6-1.9-10.7c-3.1-3.7-3.6-5.3-3.2-9.5l0.2-1.5l0-0.2c0.3-3,0.6-5.7-0.1-7.5l-1-2
			c-1.2-2.3-2.8-5.4-3.1-9.1c-0.3-3,0.8-5.2,1.9-7.4c0.8-1.6,1.6-3.2,2.1-5.4c1.5-5.8,1-8.7,0.4-11.1c-0.9-3.1-1-3.9-0.1-7.5
			c0.4-1.8,1.7-7.4,0.9-9.3l-0.7-0.8c-1-0.8-2.4-2.1-2.9-5.6c-0.2-1.4,0-2.8,0.2-4c0.2-1.5,0.4-3-0.2-3.7c-0.7-0.9-0.6-2.2-0.5-4
			c0.1-1.4,0.2-3.2-0.1-5.1c-0.4-2.7-1.5-5.4-2.5-7.7c-0.4-0.9-0.7-1.7-1-2.5c-0.6-1.7-0.6-4.6-0.6-8.2c0-3.4,0-7.3-0.5-11.3
			c-0.6-5.3-2.8-13.1-3.8-16.8l-0.4-1.3c-0.8-3-0.5-7.7-0.1-13.2l0.1-1.8c0.4-5.7,1.4-10.4,3.2-14.8c0.5-1.2,1.3-2.9,2.1-5
			c2-4.6,4.7-11,6.1-14.6c0.9-2.4,0.1-4-0.2-4.5l-0.9-0.8c-1.1,0.3-3.3,2.2-4.4,5.1c-1.3,3.2-2.3,4.5-4.9,7.8
			c-0.9,1.1-1.7,2-2.3,2.7c-1.4,1.6-2.3,2.6-2.8,4.1c-0.3,0.8-0.4,2.3-0.6,4.1c-0.3,3.2-0.8,7.6-2.3,11.1c-1.2,2.9-3.7,6.2-5.9,9.1
			c-1.4,1.9-2.8,3.6-3.3,4.7c-1.3,2.7-3.9,11.1-4.8,15.3c-0.3,1.6-0.5,2.8-0.6,3.9c-0.3,1.9-0.5,3.2-1,4.5c-0.8,1.7-2.2,5.8-2.7,9.4
			c-0.5,3-1.8,5.3-4.4,8.2l-0.8,0.9c-2.1,2.3-4.3,4.6-5.6,9.8c-0.3,1.4-0.7,2.7-1.1,4.1c-0.5,1.7-0.9,3.5-1.4,5.6
			c-0.3,1.3-0.5,3.8-0.6,7.1l-0.1,2.1c-0.2,3.2,0.4,7.4-0.1,11.4c-0.1,1.1-0.2,2.1-0.3,3.2c-0.2,1.6-0.3,3-0.6,4.5
			c-0.4,2.4-1,4.7-1.9,7l-1.1,2c-0.6,0.8-1.5,1.2-2.5,1.2c-1.1-0.1-1.8-0.9-2.1-1.9c-0.3-0.9-0.1-1.9,0-2.8c0.1-1.2,0.3-2.9-0.2-3.7
			c-1.5-2.2-2-4.5-2.2-7.5c-0.1-1.1-0.2-2.5-0.4-4.1c-0.2-1.7-0.4-3.6-0.6-5.6l-0.2-2.1c-0.1-1-0.3-2-0.3-2.8
			c-0.2-3.2,0-7.4,0.2-10.7c0.1-2.4,0.2-4.5,0.1-5.5c-0.2-2-1.5-2.7-2.6-3.2l-1.5-1.5c-0.2-0.6-0.1-1.7,0-3.8
			c0.1-1.8,0.2-3.8,0.1-5.2c-0.1-2-0.7-2.7-1.7-3.9l-0.8-1c-1.5-2.1-1.1-6.4-0.7-10.6c0.1-0.9,0.2-1.7,0.2-2.5
			c0.3-4.8-0.5-5.5-2.6-7.1l-0.1-0.1c-2.7-2.2-2.7-3.7-2.7-7.1c0-3.4,1.1-10.2,2.7-14.2c2.1-5.5,4.3-12.1,4.5-14.6l-0.6-1.8
			l-1.6-0.7l-0.2,0l0,0c-0.6,0.4-1.8,2.1-3,3.8c-0.6,0.8-1.1,1.6-1.6,2.2c-1.5,1.9-4.1,5.8-4.2,8.8c-0.2,3.7-1.3,8.4-3.8,10.7
			c-2.2,2-4,5.2-4.5,8c-0.8,4.2-1.9,6.9-3.9,6.9l-0.8-0.1c-1.3-0.4-1.8-2.6-2.1-4.5l-0.3-1.8l-0.7,0.8l-1.2,1.7l-1.1,1.5
			c-0.5,0.6-1.1,1.4-1.9,1.4h-0.1l-0.6-0.1c-1.2-0.6-1.2-3.6-0.6-6l0.4-1.5l0.2-1l0-0.9l-0.5,0.7l-0.6,0.9l-1,1.7
			c-0.7,1.4-1.3,2.9-1.8,4.5c-0.6,1.7-0.8,3.6-1.1,6.1c-0.1,1,0,3.7-0.1,4.9c-0.1,0.8-0.5,2.3-1,4.1c-0.3,1-0.5,2-0.8,2.9
			c-0.3,1.4-0.7,3-1.1,4.6c-0.5,2.1-1,4.1-1.4,5.6c-0.5,2.4-1.5,5.1-2.5,8.1c-1,2.9-2,5.8-2.8,8.8c-1.6,6.2-0.8,13.5-0.4,16.6
			c0.1,1.2,0.4,2.5,0.6,3.9c0.5,2.9,1,6,0.9,8.7c-0.4,7.7-1.5,12.9-3.4,15.9c-0.7,1.1-1.7,2.3-2.7,3.7c-1.9,2.4-4.1,5.2-5.1,7.7
			c-1.5,3.4-1.1,8.7-0.9,11.9l0,0.3c0.1,1.5,0.8,3.2,1.5,5.2c0.7,1.8,1.5,3.9,2,6.3c1.2,5.8-0.4,12.6-1.2,15.9l-0.2,0.8
			c-0.3,1.3,0.4,3.2,1,4.8c0.4,1.1,0.8,2.1,0.9,3.1c0.1,1.1,0,2.4-0.1,4.4c-0.2,2-0.4,4.7-0.4,8.5c-0.2,9.2,1.1,10.5,2.2,10.7
			c0.3-0.1,0.8-0.9,1.6-2.4l0.4-0.7l0.9-2.3c0.3-2.3,0.8-4.4,1.4-6.6l0-0.1c0.3-1.1,0.6-2.3,0.9-3.5c0.3-1.5,1-2.9,1.6-4.1
			c1-2,1.9-4.1,2-7.4c0.1-2-0.4-6-1-9.3c-0.2-0.9-0.4-1.7-0.6-2.4l-0.4-1.6c-0.6-3.3,0.4-7.2,3.1-12.6c1.6-3.1,3.2-4.4,4.6-5.5
			c1.4-1.1,2.3-1.9,2.9-4.1c0.3-1,0.1-2.8-0.2-4.9c-0.3-2.9-0.7-6.5-0.2-10.4c0.3-1.8,0.8-4.4,1.4-6.9c0.6-2.6,1.1-5.3,1.2-6.4
			l0.1-1.2c0.2-2.3,0.5-5.9,1.1-9.6c0.4-2.5,0.9-4.8,1.4-6.9c0.6-2.9,1.1-5.3,1.2-7.2c0.1-2.3-0.5-5-1.1-7.5c-0.5-2.2-1-4.3-1.1-6.2
			c-0.1-4.4,1.3-9.2,3.6-17.1l0.2-0.8c1.5-5.2,3.2-7.6,5.2-7.6c1,0,2,0.7,2.5,1.9c1,2.5,0.6,7,0.3,11c-0.2,1.9-0.3,3.7-0.2,4.7
			c0.2,2.6,2.5,4.9,3.8,5.8c1.7,1.2,2.5,3.5,3,5.6c0.2,0.7,1.1,1.3,2.1,2c1.3,0.8,2.7,1.8,3.5,3.4c0.8,1.5,1.6,5.5,2.1,10.8
			c0.6,5.2,1.5,7,2.6,9.4c0.4,0.7,0.7,1.5,1.1,2.4c1.6,3.8,2.3,6.5,2.2,9.3c0,1.8,0.6,3.5,1.2,4.9l0.7,2.1c0.3,1.2,0,2.6-0.2,4.3
			c-0.3,2.1-0.7,4.5-0.2,7c0.5,2.2,1.8,3.4,3.8,3.7c2,0.2,3.8,1.3,4.7,2.1c1.1,1,1.2,3,1.4,5.8c0.2,3.1,0.5,7,2.3,10
			c0.7,1.3,1.6,2.1,2.6,2.5l0.8,0.1c0.9,0,1.6-0.6,1.9-1.7c0.3-0.9,0.2-3,0.2-5.2c0-3.2-0.1-7.3,0.6-10.6c0.7-3.4,2.3-6.5,3.6-9.1
			c0.7-1.3,1.3-2.6,1.7-3.7c0.6-1.7,0.7-5.3,0.8-8.7c0.1-3.2,0.1-6.5,0.6-9.1c0.5-2.6,2.3-4.8,4.2-7.1c1.9-2.3,4-4.9,5.2-8.3
			c2.4-6.8,2-8.1,1-12c-1-4.1,0-9.3,1.1-15.3l0.2-1.1C609.3,98.6,611,95,613,95l0.3,0c1.5,0.2,1.5,2,1.4,6.4c0,3.2-0.1,8,0.9,9.4
			c0.3,0.4,1.1,1.2,1.9,1.9c2.1,2,4.7,4.4,5.2,7.2c0.4,2.4-0.4,4.7-1.4,7.3c-0.6,1.7-1.3,3.5-1.6,5.5c-0.4,2.4-1.2,4.3-1.9,5.9
			c-0.3,0.8-0.6,1.5-0.8,2c-0.2,0.9-0.5,3.3,0.1,9.7c0.2,2.9,1.1,5,1.8,7c0.5,1.3,0.9,2.5,1.1,3.6c0.2,1.4,0.1,4.6,0.1,8.3
			c-0.1,3.4-0.2,6.8,0,8.4c0.4,3.2,2.7,11,6.4,15.4l0.7,0.9c1.8,2.2,2.8,3.3,2.8,6.2c0,1.1-0.3,2.1-0.7,3.1
			c-0.3,0.9-0.6,1.8-0.6,2.7c0,0.6-0.1,1.4-0.4,2.4c-0.3,1.5-0.8,3.4-0.6,5.4c0.2,2.8,1.6,3.4,3.1,4.1c0.9,0.4,1.9,0.9,2.4,1.9
			c0.2,0.5,0.2,1,0.1,2.7c-0.1,2.1-0.2,5.6,0.6,7.5c0.6,1.5,2.7,2.8,4.6,4c1.9,1.2,3.5,2.2,4.1,3.5c0.6,1.4,0.4,3.6-0.1,7.5
			c-0.2,1.2-0.5,3.5,0.2,3.7l1-1.4c0.6-1,1.3-1.7,2.2-1.8l0.2,0c1.3,0,1.6,1.3,1.9,2.5l0.4,1.2c0.3,0.4,1,2.6,1.8,2l0.3-0.6
			l-0.5-1.8C649.4,247.6,649.3,246.8,649.2,245.9"/>
		<path class="st2" d="M453.9,176.1c-0.5,1.1-1.3,1.8-2.1,2.6l-0.5,0.5l-1,1.2c-0.8,1.2-2,2.7-3.5,3.5l-2,0.5
			c-2.1,0-4.1-1.5-5.1-2.7c-1.2-1.5-2.2-4.9-0.5-7.7c0.6-0.9,0.6-1.5,0.6-2.1c0-0.8,0.4-2.1,2-3.5c0.7-0.6,1.5-0.9,2.3-1.2
			c1.1-0.4,1.8-1.1,2.6-1.9l0.3-0.3c0.8-0.9,2.1-2,3.8-2l0.7,0.1c2,0.4,3.2,2.1,3.5,5C455.3,171.4,454.9,174,453.9,176.1
			 M465.4,187.8c-0.8-2.8-2-5.4-2.8-7.1l-0.4-0.9c-1.4-3.3-1.2-8.3-1-11.6c0-0.8,0.1-1.4,0.1-2c0-0.9-0.1-1.9-0.2-2.9
			c-0.2-2.1-0.5-4.4,0-7.2c0.3-1.6,0.9-4.1,1.8-7.5c0.5-2,1.1-4,1.6-5.8c0.3-1.1,0.6-2,0.8-2.7c0.8-2.8,0.2-4.3-1-5.9
			c-1.8-2.4-1.3-5.6-0.8-8.1c0.4-2.4,1-4.7,1.5-6l0.7-2c0.5-1.5,1-2.8,1.2-4.1c0.1-1-0.1-2-1.2-2.4l-1.9,0.1c-1.9,0.7-2.8,3-3.6,4.8
			c-0.8,1.8-1.9,3.5-2.1,5.4c-0.1,1.7,0.1,3.6-0.5,5.2c-0.8,2.2-1.7,4-1.8,6.3c-0.1,1.1-0.1,2.1-0.5,2.9l-0.3,0.7
			c-0.6,1.5-1.2,3.3-2.4,5.3c-0.5,0.9-1,3.3-1.4,5.5c-0.6,3.3-1.1,5.4-1.9,6.4c-1.4,1.6-3.3,2.2-4.9,3.4c-1,0.8-1.6,2.1-2.9,2.6
			c-0.8,0.3-3,1.8-3.9,3.4c-1.2,2.2-2.6,3.2-4.1,4.3c-0.6,0.4-1.2,1.8-1.3,3.1c-0.1,1.4-0.8,2.9-1.4,4.2c-0.8,1.7-1.3,2.9-0.9,4.8
			c0.4,1.9,0,4,0.7,5.9c0.4,1.1,1.4,1.7,2.3,2.4c1.1,0.9,1.9,1.1,3.1,1.5c0.8,0.2,1.8,0.5,3,1l1,0.5c0.9,0.5,2.1,1.3,3.7,1.3l0.7,0
			l1.5,0.1c0.8,0,1.4-0.1,1.8-0.2c1-0.4,2.2-1.6,3.5-3.6c0.5-0.9,1-2,1.4-2.9c0.7-1.6,1.1-2.4,2.1-2.4l0.3,0
			c1.3,0.3,1.6,1.8,2.2,5.1l0.2,1.1c0.2,1.3,0.5,2.6,0.8,3.9c0.3,1.3,0.7,2.3,1.7,3.3c1.4,1.4,3.2,2.8,5,1.3c1.4-1.2,2-2.6,1.7-4.5
			C466.5,191.9,466.1,189.8,465.4,187.8"/>
		<path class="st2" d="M430.6,132.1l-1.2-1.4c-1.2-0.1-1.7,2.2-2.2,3c-0.9,1.5-1.9,3-2.5,4.6c-1,2.9-2.8,8.2-4.2,10.5
			c-0.7,1.2-1.2,3.3-1.5,5c-0.3,1.3-0.2,2.6-0.2,3.9l-0.3,3.5c-1.1,1-3-2.4-3.4-3.1c-0.8-1.5-1.5-3.1-2-4.8
			c-0.3-0.9-0.5-1.9-0.9-2.4c-0.7-1.2-1.4-1.2-1.7-1.2l-0.9,0.1l-1.1,0.1c-2.3,0-3.1-2-3.8-3.8c-0.4-1-0.6-2.2-0.9-3.6
			c-0.4-1.9-0.8-4.1-1.6-5.8c-0.8-1.8-2.2-2.4-3.1-2.4l-0.6,0.1c-0.2,0.2-0.4,0.8-0.3,3.4l0,1c0,1.3-0.3,5.3-0.8,7
			c-0.2,0.6,0,2.8,0.2,5.2c0.2,2,0.3,3.9,0.3,5.1c-0.2,3.7-1.7,6-2.8,7.7l-0.5,0.8c-1,1.6-0.6,4.3-0.4,6c0.2,1.3,0.8,2.1,1.5,3.1
			l1.3,1.9c0.5,0.9,0.5,2.5,0.4,4.4c0,1.2,0,2.5,0.1,3.3c0.2,0.9,0.9,1.9,1.7,2.3c1.9,1,3.6-2.7,3.6-4.1c0-0.8-0.4-1.5-0.5-2.2
			l0.3-2l0.4-1.5c0.3-2.4-0.1-5.1-0.7-6.1c-1.3-2.3-0.6-9.1-0.3-9.7l1.2-0.9c1,0,1.5,0.9,2.6,3.1l0.1,0.2l0.6,1.2
			c0.2,0.3,1,1,1.9,1.7c0.9,0.8,1.8,1.4,2.1,2l0.7,1.1l1.1,1.9l0.8,1.1c0.5,0.6,1,1.3,1.4,2.1c0.6,1.3,1.4,2.8,2.2,4.2
			c1.1,1.8,2.2,3.8,2.8,5.5c1,2.7,1.4,4.8,2.7,4.9c1.3,0.1,0.9-1.6,1.6-4.9l0.4-1.8c0.3-1.4,0.3-3.4,0.2-5.1c0-1.2-0.6-2.5-0.5-3.4
			c0.1-1,0.8-1.8,1-2.8c0.3-1.5,0.3-3.4,0.2-5.1c-0.1-1.2,0.8-1.9,1.2-3.1c0.3-0.8,0.6-1.6,0.8-2.5c0.3-1.2,0.3-2.7,0.3-4
			c0-0.8,0-1.6,0.1-2.3c0.2-1.2,0.3-3.4,0.8-5.6c0.9-4.1,2.3-9,2.3-12.2C431.2,134,431,132.9,430.6,132.1"/>
		<path class="st2" d="M376.4,159.3l-1.2-0.2l-1.5-0.8l-1.2-1.1l-2.6,0.6c-0.9,0.2-2,0.4-2.8-0.1c-1.3-0.9-0.9-3.1-0.6-4.4
			c0.4-1.9,1.1-3.8,2.1-5.5c1.1-2,1.8-4.3,2.3-6c0.7-2.3,1.1-3.9,2.8-3.9c3.3,0,4.7,3.6,4.3,6.3l-0.1,0.7c-0.3,1.5-0.6,3.6,0.4,6.1
			C379.2,153.3,379.7,159.2,376.4,159.3 M390.6,187.7c-0.2-1.6-0.5-3.3-0.6-5.2l-0.1-1.6c-0.1-1.6-0.3-3.3-0.1-5.4
			c0.6-7.4-0.4-10.4-2.1-12.7c-1.4-1.8-1.7-4.6-2-7.1c-0.2-1.4-0.3-2.8-0.6-3.5c-1.2-2.8-1.9-5.4-2.2-7.9c-0.1-0.7-0.1-1.5-0.2-2.4
			c-0.2-2.7-0.5-6.4-1.4-8.7c-0.8-1.9-0.8-4.1-0.8-6.4c0-1.8,0-3.7-0.4-5.6l-0.8-2c-1.3-1.3-3.1,1.5-3.7,2.3
			c-1.3,1.9-1.7,4.1-2.2,6.3c-0.5,2.2-1,4.3-1.6,5.6c-1,2-2.6,2.3-3.9,2.3l-1,0l-0.8,0.1c-0.7,0.3-1.8,1.8-2.8,4.7
			c-0.3,0.9-0.8,2.1-1.3,3.4c-0.6,1.5-1.4,3-1.7,4.5c-0.4,1.5,0.3,3.3,0.7,4.8c0.8,2.8,1.5,5.5,0.7,7.2c-0.2,0.4-0.5,1.5-0.8,2.7
			c-0.6,2.3-1.5,5.5-2.9,8.8c-1,2.5-1.4,3.2-2.2,4.6c-0.4,0.7-0.9,1.6-1.6,2.9c-1.7,3.2,0.6,7.1,1.4,8.6l0.2,0.4
			c0.5,1,0.4,2.4,0.3,4c-0.1,1.5-0.2,3.4,0.4,4l1,0.4l1.1-1.1c0.5-1.8,1.5-3.4,2.4-4.7l1.2-2c0.4-0.8,0.4-0.9-0.1-1.8
			c-0.2-0.4-0.5-1-0.7-1.8c-0.8-2.7,1.4-5.2,2.8-6.9l0.3-0.3c0.9-1.1,1-1.7,1.1-2.9c0.1-1,0.2-2.3,0.9-4.1c0-0.1,2.8-6.8,5.7-6.8
			c0.8,0,1.2,0.5,1.7,1l2,1.7l1,0.7c1.8,1.3,3.4,5.5,4,8c0.2,1.1,0.8,2.8,1.3,4.5l0.6,2.1l0.3,1.1c0.3,1.2,0.6,2.5,1.4,3.4
			c0.8,1,1.2,2.1,1.6,3.3c0.5,1.4,1,2.9,1.9,4l1,0.6c0.9,0,1.9-1.2,2.1-2.9C391.1,191,390.8,189.5,390.6,187.7"/>
		<path class="st2" d="M326.3,93c-0.9,0-2.1,0.3-3.4,0.7c-2,0.7-9.8,5.5-11.9,7.3c-0.7,0.6-1.5,1.3-2.4,2.2
			c-1.9,1.8-3.9,3.7-5.5,4.6c-1,0.6-1.5,1.1-2.4,2.1c-0.7,0.8-1.6,1.8-3.1,3.2c-1.8,1.6-3,2.3-4.4,2.3l-0.8,0l-0.6,0l-0.6,0.1
			c-1.5,0.4-2.9,0.9-5.9,3.9c-3.5,3.5-6.6,4.8-9.4,5.7c-1,0.3-1.9,1.1-2.8,1.9l-0.6,0.5c-1.1,0.9-2,1.5-2.2,1.6l-0.6,0.2l-0.7-0.2
			l-0.5-1.1c0.2-1.6,0-3.2-0.2-4.4l-0.2-0.9c-0.2-1-0.3-1.8-0.3-2.9c0-1.2,0.5-2.2,1.1-3.2c0.7-1.4,1.5-2.9,1.7-5.6
			c0.3-4.7-0.2-5.2-1-6.2c-0.8-0.9-0.8-2.4-0.8-4.3c0-1,0-2-0.1-3.2c-0.2-1.7-0.5-2.5-0.8-3.2l-0.6-1.7c-0.2-0.9,0.2-2,0.9-3.9
			c0.9-2.6,2.9-6.5,2.9-10.2c-0.1-5.5-0.8-6.5-2.2-6.9l-0.3,0c-0.8,0-1.7,0.9-2.5,1.7l-0.1,0.1c-0.8,0.8-1.2,2-2.9,2.4
			c-1.4,0.3-2.2-1-3.3-1.6l-1.5-0.2l-0.5,0.8c-1.1,2.5-0.1,4.8,0.2,7.4c0.2,1.6,0.3,3.2,0.4,4.8c0.2,4,0.2,8-0.5,11.9l-0.4,2
			c-0.4,2.3-0.9,5.2-1.6,7.9c-0.9,3.5-2,6.9-2.9,9.8c-0.4,1.1-0.7,2-0.9,2.9c-0.7,2.4-0.9,4.6-1,6.6c-0.1,2-0.3,3.6-1,4.9
			c-1.3,2.2-3.4,7-4,10.9c-0.1,0.9,0.2,1.9,0.7,2.5l1,0.6l0.7-0.4l0.9-1.1l0.1-0.1c0.7-0.8,1.6-1.9,2.8-3.2l0.8-0.9
			c1.4-1.7,2.6-3,3.9-3l1,0.3c2.5,1.5,1,7.1,0,9.4c-0.5,1.3-0.5,2.2-0.4,3.3c0.1,1,0.2,2.1-0.3,3.3c-0.2,0.5-0.4,1.8-0.5,3
			c-0.5,3.3-0.8,4.9-1.5,5.7c-0.7,0.7-1.6,2.4-1.6,4l0.7,1.2c0.6,0.7,1.4,1.6,1.5,3.2c0.1,1.2-0.9,9.8-1.8,13.3
			c-0.4,1.5-0.7,3.5-0.9,5.4c-0.3,2.5-0.6,4.7-1.2,5.9c-0.8,1.7-2.7,7.3-3.1,10.8c-0.3,2.7,0.1,4,0.6,4.3c0.7,0.5,1.1,1.4,1.2,2.3
			l0.6,1.8c0.8,0,1.3-2.5,1.6-2.9c0.7-0.8,1.2-1.7,1.5-2.7c0.3-1,0.5-1.8,0.7-2.6c0.3-1.3,0.5-2.5,1.4-3.8c1.1-1.6,2.7-5.8,3.5-10.3
			c0.4-2,0.8-4.6,1.3-7.3c0.8-4.4,1.5-9,1.9-10.8c0.4-2,1.4-3.1,2.8-3.1c0.9,0,1.8,0.9,2.7,0.6c0.9-0.2,1.6-1.7,2.1-2.3
			c0.9-1.1,2.4-1.5,3.7-1.1c1.7,0.5,2.4,1.8,2.9,3.3c0.4,1.1,0.8,3,1.6,3.2c2.6,0.8,3.3,2.7,6.5,8.9c1.8,3.6,2.2,6.2,2.6,8.5
			c0.2,1.1,0.3,2.1,0.6,3.1c0.5,2,2,3.2,3.4,4.4l2,1.9c2.3,2.8,3.4,6.4,4.3,9.3c0.4,1.2,0.7,2.3,1.1,3.1c0.8,1.8,2.6,4.4,3.8,6.2
			c0.6,0.9,1.1,1.6,1.4,2.1c0.9,1.5,1.5,4.8,2.1,8.1l0,0.1c0.1,0.6,0.5,1.3,0.9,2.1c0.6,1.1,0.7,3.5,1,5.1l0,1.1
			c0,1.4,0.1,3,0.6,3.5l0.9,0.4c0.6,0,1.3-0.4,1.4-1.3c0.1-1,0.4-4.2,0.1-5.9c-0.3-1.9-0.5-2.9-0.4-3.7c0.2-1.2,1-1.4,1.3-1.4
			c0.9,0,1.2,0.7,1.8,2.2c0.5,1.3,1.1,2.6,2.1,3.5l0.8,0.6c2,0.8,0.4-6.4,0.2-7.1c-0.2-1-1-3-1.8-5.3c-1.3-3.6-3.2-8.5-4.3-13.3
			c-1.2-4.9-1.6-8.3-2-11.2c-0.2-1.7-0.4-3.2-0.7-4.9c-0.5-2.4-1.5-3.9-2.7-5.7c-0.8-1.1-1.7-2.5-2.5-4.1c-1-2.1-1.1-3.8-1.2-5.3
			c-0.1-1.6-0.2-2.9-1.2-4.4c-1.1-1.7-2.9-2-5.1-2.5c-1.5-0.3-3.1-0.6-4.4-1.5c-2-1.3-3.1-2.9-4.3-4.9c-0.7-1.1-1.5-2.2-2.4-3.4
			c-2.9-3.5-4.5-5.6-5.4-7.9l-0.3-0.9l-0.7-1.6c-1.6-1.6-2.8-3.4-3.4-5.1c-1.1-3.2,1.3-6.6,2.3-7.9c0.8-1,2.2-1.3,3.9-1.7
			c1.1-0.3,2.3-0.6,3.3-1.1l0.3-0.2c2.4-1.2,7.5-3.8,9.3-5.6c0.8-0.8,2.1-2.7,2.5-3.9c0.9-3.2,2-5.9,3.3-8.4
			c1.4-2.5,3.9-3.9,6.6-5.3c1.2-0.6,2.3-1.3,3.5-2c3.6-2.4,4.2-3.3,5.9-6.8c1.2-2.5,2.4-3.4,3.4-4.1l1.6-1.5c0.7-0.9,2-1.9,3.3-3
			c1.1-0.8,3.3-1.5,3.6-3C327.7,93,326.9,93,326.3,93"/>
		<path class="st2" d="M237.3,174.2c-0.8,0-1.9,0.7-3.2,2c-1,1-2.5,1.5-4.4,1.6c-1.6,0-3.2-0.4-4.5-1.1l-1.7-1
			c-2.2-1.4-4.4-3.8-7-2.2c-0.8,0.5-1.8,1.1-2.8,1.2c-0.8,0-1.5-0.3-2.1-0.6c-0.7-0.3-1.4-0.6-2.3-0.6l-0.4,0
			c-0.4,0.1-1.5,0.8-2.6,1.6c-1.6,1.2-3.8,2.8-5.8,2.8l-0.4,0c-1.2-0.1-3-0.9-4-2.6c-0.6-1.1-1.2-3-0.1-5.6c0.7-1.6,1.8-3.4,2.8-5.1
			c1.6-2.6,3.4-5.5,3-7c-0.3-1.4-1.3-2.1-2.4-2.8c-0.8-0.5-1.5-1-1.9-1.9c-1-2.2-0.4-6,4.1-10.2c1.9-1.7,3.7-3.1,5.4-4.3
			c1.9-1.4,3.6-2.7,4.8-4.1c1.1-1.3,2-1.9,2.6-2.4l0.9-0.8l0.1-0.2l-0.5-0.2c-0.7-0.2-1.6-0.5-2-1.4l0.1-1.6
			c0.9-1.9,5.7-4.1,8.7-4.1c3.3,0,8.9-0.4,10.8-1.1c1.4-0.5,5.3-3.4,4.3-5.3l-0.9-0.7c-2.6-1.2-4.8-0.5-7.4,0.1
			c-1.5,0.3-2.9,0.8-4.4,0.8c-1.4,0-2.5-0.6-3.5-1.5c-0.8-0.8-1.9-1.8-3.1-1.8c-2.8,0-5.1,0.6-7,1.8l-1.7,1
			c-2.2,1.2-3.6,2.1-3.9,3.8l-0.2,1.2c-0.2,1.8-0.5,4-3.2,4.8l-0.3,0.1c-6.1,1.8-7.6,2.8-8,3.2l-0.4,0.4c-1,0.9-2.7,2.5-2.6,5
			c0.1,2.5-0.3,4.5-1.8,7.8c-0.4,0.9-0.8,1.7-1.2,2.3c-0.9,1.7-1.4,2.7-1.3,5.4c0.1,3.6-1.2,5.6-2.6,7.7l-0.9,1.4l-1.3,1.9
			c-0.8,1-1.5,2-2.1,3.2c-0.7,1.5-1,3.5-0.7,4.1l0.4,0.4c0.6,0,1.6-0.9,2.6-1.9c0.9-0.8,1.4-1.4,2.2-1.4l1.2,0.7
			c0.7,1.1-0.1,2.5-1.1,4.4c-0.5,0.9-1,1.8-1.3,2.6c-1.8,5-1.8,6.9-1.6,7.5c0.1,0.5,0.4,0.9,1.8,0.9l1.9-0.2l2-0.1
			c2.7,0,4.5,1.2,5.4,3.6c0.4,1,0.1,2.1-0.1,2.9c-0.3,1.2-0.5,2,0.1,2.9c0.6,1,1.2,1.5,1.8,1.9c0.7,0.5,1.5,1.2,2.2,2.5
			c0.3,0.7,0.4,1.7,0.6,3.4c0.3,3.1,0.7,6,1.8,6h0.1c1.6,0,3-3.1,4.2-5.9c0.4-0.9,0.8-1.7,1.1-2.5c2.7-5.4,4.9-8.1,7.2-8.5l0.9-0.1
			c0.9,0,1.5,0.3,2,0.5l0.9,0.3l0.9-0.2c1-0.4,2.2-1.3,3.4-2.1c1.5-1.1,3-2.2,4.5-2.7c0.5-0.2,1.3-0.3,2.3-0.3
			c0.8,0,1.8,0.1,2.8,0.1c0.9,0.1,1.7,0.1,2.5,0.1l0.7,0c2.6-0.2,3.4-1.3,4.7-3.2l0.8-1.1c1.6-2.2,1.4-4.7,0.6-5.4L237.3,174.2z"/>
		<g>
			<path class="st2" d="M147,93.7l1.6,0.5c1.1,0.4,1.5,1.1,1.9,1.6c1,1.4,1.7,2.5,3.5,2.4c2.3,0,4.9-0.9,4.9-7.5
				c0-3.3,0.6-5.1,1.2-6.8l0.5-1.5c0.3-1.2,0.4-3-0.3-4.1c-1-1.4-2-0.1-3.3,0l-1.2-0.2c-1.7-0.7-1.5-2.9-1.2-4.6
				c0.1-0.9,0.2-1.7,0.2-2.4c-0.2-2-0.5-2.5-2.5-2.7l-0.3,0c-2.1,0-4,1.5-4.6,3.7c-0.3,1,0.1,1.9,0.8,3.2c0.5,1,1.1,2.1,1,3.4
				c-0.1,1.1-0.9,2.6-1.9,4.4c-1,1.9-2.3,4.3-2.4,5.9C144.3,92.5,147,93.7,147,93.7"/>
			<path class="st2" d="M160.9,140.1c-0.1-2.3,0.6-4.9,1.3-7.6c0.4-1.4,0.7-2.8,1-4.2c0.7-3.4-0.2-5.3-1.1-7.4l-0.3-0.7
				c-0.8-1.9-0.5-3.6-0.2-4.9l0.3-1.8c0-0.5,0-1.6-2.1-1.6l-1.3,0.1c-1.1,0.3-1.7,1.5-2.8,2c-1.5,0.8-3.1,0.3-4.6-0.4l-0.6-0.2
				c-1.1,0.2-0.4,3.4-0.3,4.1c0.3,1.2,1,2.5,1,3.7c-0.1,1.5-0.6,3.4-1.1,5c-0.4,1.3-0.8,2.8-0.7,3.3c0.1,0.9,0.6,1.2,1.5,1.7
				c0.7,0.4,1.5,0.8,1.9,1.6c0.9,1.8,0.3,5.9-0.6,7.8l-0.6,1.3c-0.9,2-2.5,5.2-2.5,7.4c0,1.6,1.4,3.1,2.6,4.3l1.7,2.1
				c1,1.9,0.3,8.5-0.2,12.2c-0.4,2.6,0,4,0.8,5.7c0.8,1.7,0.5,3.3,0.3,4.8l-0.2,1.4c-0.1,1,0.6,2.2,1.3,3.4c0.4,0.7,0.8,1.4,1.1,2.2
				c0.6,1.4,0.4,4.5,0.2,9.6c-0.1,2.4-0.3,4.8-0.2,6.1c0.2,3,2,5.1,3.1,5.2l0.1,0c0.8,0,1.1-0.8,1.5-2.6l0.1-0.6
				c0.4-1.6,0.3-2.6,0.1-5.1c-0.1-1-0.1-2.3-0.2-3.9c-0.2-5,0.7-7,1.6-9.1l0.5-1.1c1.9-4.5,2.9-8.3,2.7-9.9
				c-0.2-1.7-0.9-3.2-1.6-4.7c-0.6-1.2-1.2-2.5-1.5-3.9c-0.5-2.8,1.7-5.9,3.4-8.4c0.9-1.3,1.6-2.4,1.7-2.8c0.2-2.2-0.7-3.8-2.7-4.8
				C161.6,147.7,161.1,144,160.9,140.1"/>
		</g>
		<path class="st2" d="M88.8,135c-1.2,0.3-2.5,0.4-3.9,0.8c-3,0.7-5.8,2.2-8.1,4.3c-1.8,1.6-3.4,4.5-6,4.9l-0.4,0
			c-1.2,0-2.2-0.9-3.3-1.9c-1.2-1.1-2.4-2.1-3.8-2.1c-1.9,0.1-3,1-4,1.9c-0.9,0.7-1.7,1.5-2.9,1.5l-1.1-0.2
			c-0.7-0.3-1.2-0.9-1.5-1.6c-0.7-1.9,0-4.7,1-6.8l0.6-1.1c0.5-0.9,1.3-2.1,0.7-3.2l-1.6-1.1l-1.2-0.9c-1-1-1.5-2.3-1.4-3.7L52,124
			c0.2-2.4,0.6-6-1.2-7.3l-1.2-0.8c-1.2-0.7-2.5-1.6-2.9-3l-0.2-0.7c-0.4-1.2-0.8-2.5-0.1-3.7c0.5-0.8,0.7-1.8,0.8-2.7
			c0.1-0.9,0.2-2-0.3-2.8c-0.6-0.9-1.5-1.4-1.8-2.5l-0.3-0.8l-0.5-0.6l-1.8-1.1c-1-1.2-1-2.9-1.2-4.4c-0.1-1.2-0.2-2.4-0.2-3.7
			c0-1.1-0.1-2.3,0-3.4c0.1-0.8,0.6-1.5,0.6-2.3c0-0.8-0.7-1.3-1.2-1.9l-1.3-1.6c-0.9-1.3-1.6-2.8-1.4-4.5l0.1-0.5
			c0.2-2.2,0.6-6.3,3.4-7.1l1.1-0.1c0.8,0,1.7,0.1,2.8,0.3c1.1,0.2,2.3,0.4,3.5,0.4c1.1,0,2.1-0.2,3-0.6c1.7-0.8,3.4-2.2,5.1-3.7
			c2.4-2,4.7-3.9,6.9-4.1l1.1,0c1.5,0,2.7,0.2,3.9,0.4c1,0.2,2.1,0.4,3.5,0.4l0.6,0c1.1,0,2-0.2,2.8-0.3l1.9-0.2
			c0.9,0,1.6,0.3,2.2,0.8c0.4,0.4,0.6,1,1.1,2c0.7,1.8,1.9,4.8,4,5.7l1.3,0.3c1,0,2-0.4,2.9-0.9c0.9-0.4,1.8-0.9,2.8-0.9l1,0.2
			c1.6,0.6,5,5.2,4.5,7.7L97,77.5c-0.4,0.9-0.7,1.5,0.3,2.6c1,1.2,2.3,2.5,3.6,3.8c2.7,2.8,4.4,4.5,4.7,6.1c0.3,2.1-1.8,2.7-2.7,4.2
			l-0.2,1.6l0.4,0.6c1.4,1.8,2.9,3.5,2.7,5.9l-0.1,2.2c0,1.6,0.1,3.4-0.7,4.8c-0.7,1.3-2.3,1.7-3.2,2.9c-0.7,1-0.8,2.3-1.7,3.2
			l-1.4,0.8l-0.9,0.9c-0.8,1-1.2,2.4-1.3,3.7c-0.7,6.2-1.5,9.4-2.5,10.9C92.3,133.9,90.7,134.6,88.8,135 M185.6,269.5
			c0.2-1.2-0.2-3.4-1-5.5l-0.5-2.2c-0.3-1.7-3.6-9.2-5.7-11.8l-0.4-0.5c-3.3-4.1-8-7.2-8.4-10.7c-0.1-0.9-0.2-1.8-0.3-2.6
			c-0.2-1.9-0.3-3.4-1-4.5c-0.7-1.1-1.9-2.6-3.3-3.6l-2.1-1l-0.8-0.3c-1.2-0.6-5-2.3-6.9-6l-0.5-1c-1.2-2.5-2.4-4.8-3.8-5.2
			c-1.9-0.6-5.3-2-6.6-5.5c-0.3-1-0.7-2.1-1-3.3c-0.7-2.5-1.5-5.4-2.8-7.3c-1.3-1.8-3.8-3.4-5.5-4.5c-1.1-0.7-1.6-1.1-2-1.5
			c-0.7-0.8-1.4-2.4-2.2-4.4c-1.8-4.1-3.6-8.3-7.6-10.6c-1-0.6-2.3-1.1-3.5-0.9c-0.9,0.1-1.7,0.5-2.6,0.8c-1,0.4-2.3,0.6-3.1-0.3
			c-0.8-0.8-1.2-2-1.7-3c-0.4-0.9-0.8-1.8-1.3-2.6l-1.5-1.9l-0.8,0l-1.1,1.3l-1.5,0.9l-0.3,0c-0.8-0.2-1.1-0.8-3.5-5.2
			c-0.9-1.6-1.6-3.2-2.6-4.8c-0.8-1.2-2.1-3.2-3.6-3.3l-1.8,0.2l-2-0.8l-0.8-1.2l-1.1-1.1c-1.7-1.8,1.3-3.9,2.7-4.6
			c1.4-0.7,2.8-1.3,3.9-2.4c1.1-1.1,1.6-2.7,2.4-4.1c0.8-1.6,2-2.8,3.8-3.4c1.5-0.5,3.1-0.7,4.7-0.9c1-0.1,2-0.3,2.9-0.7
			c0.8-0.4,1.6-1,2.2-1.6c3.5-3.4,4.9-8.3,5.6-12.9c0.2-1.3,0.3-2.3,0.7-2.9l1.6-1.4c1-0.6,2-1.2,2.6-3.6c0.3-1.4,0.2-2.8,0.1-4.1
			c-0.1-1.6-0.2-3.1,0.4-4.4c0.4-0.7,1-1.4,1.7-2.2c1.7-1.9,4-4.5,4.2-8.8c0.1-2.2-0.1-4.1-0.4-5.9c-0.3-2.6-0.6-5,0.1-7.6
			c0.6-1.9,1.1-4,1.1-6c0-2.2-0.8-4-2.5-5.4l-0.1-0.1c-1.1-1-2.5-2-2.9-3.9c-0.2-0.8-0.1-2.1,0.1-4.5c0.3-3,0.6-7.1,0-9.6
			c-0.4-1.5-1.9-2.9-3.1-3.8c-0.8-0.6-1.8-1.1-2.9-1.2c-2.4-0.2-4.5,1.7-6.9,1.7c-3.2,0-4.2-2-4.4-3.2c-0.1-0.5-0.2-1.1-0.3-1.9
			c-0.1-1.1-0.1-2.2-0.4-3.2l-0.7-1.4l-1.6-0.3c-0.8,0-1.7,0.1-2.4,0.2c-0.9,0.1-1.9,0.3-2.9,0.3c-1.2,0-2.2-0.2-3.1-0.6
			c-1.4-0.7-2.7-1.6-4.1-2.5c-1.6-1.1-3.1-2.1-4.5-2.6c-2-0.8-4-1.8-6-2.7c-2.4-1.2-4.5-2.9-7.1-3.8c-2.6-0.9-5.3-1-8-0.8
			c-1.3,0.1-2.7,0.2-4,0.6c-1.8,0.5-3.1,1.7-4.6,2.8c-1.6,1.2-3.2,2.4-4.8,3.6c-0.9,0.7-1.8,1.4-2.7,2.1c-3.3,2.7-7.7,5.7-12.1,5.7
			l-1.3-0.1c-1.7-0.2-3.3-0.7-5-1.2c-0.8-0.2-1.5-0.5-2.4-0.4l-2.1,0.6c-1.6,0.6-3,1.5-4.4,2.4l-2.1,1.5l-1.7,1.7
			c-2.6,2.7-3.6,3.7-4.7,3.7c-0.8,0-1.6-0.3-2.3-0.7l-2-0.7l-0.8,0.6c-0.9,1.4-1,3.5-0.9,5.1c0.2,1.6,0.7,3.2,1.8,4.4
			c0.9,1,1.7,1.7,2.4,2.3c2.1,1.8,3.3,3,3.7,7.4c0.2,2.5-0.5,5.1-1.1,7.7c-0.9,3.6-1.9,7.3-0.5,10.9c1,2.6,3,4.8,5,6.8
			c2.8,2.9,5.7,6,5.8,10.4c0,3.3-0.8,6.2-1.4,8.4c-0.3,1-0.5,1.9-0.6,2.4c-0.1,1.3,0.3,1.9,0.7,2.6l0.7,1.6l-0.2,1.8
			c-0.2,0.9-0.3,1.6,0.2,2.5c1.5,2.5,2,4.5,1.8,6.9l-0.3,1.7c-0.4,1.9-0.7,3.7,0.9,6.2c0.8,1.3,1.7,2.2,2.4,3.1
			c1.4,1.6,2.7,3.1,2.9,5.4c0.1,1-0.1,2-0.3,2.9c-0.3,1.4-0.7,2.9,0.1,5.1c0.2,0.6,0.4,1.2,0.8,2.1c1.5,4.1,4.1,10.9,4.3,17
			c0.1,3.7-0.6,7.2-2.1,10.5c-0.4,0.8-0.6,1.7-0.3,2.6c0.3,0.8,0.9,1.5,1.5,2.2c0.8,1,1.9,2.3,2.7,4.2c1.9,4.2,2.9,7.4,1.9,10.3
			c-0.3,1-0.8,1.7-1.2,2.3c-0.8,1.2-1.5,2.3-1.5,5.5c0,3.7,0,5.6,1.8,8.2c2,2.8,2.4,4.4,3.1,6.9c0.3,1,0.7,2,1.3,2.9l1,1.1
			c1.1,0.9,1.6,1.7,1.7,3.1c0.2,1.5,0,3.1,0.3,4.6c0.6,2.7-0.2,5.2-0.3,7.9l0.1,1l1.8,1.6c1.8,1.3,4,2.9,4.2,5.3
			c0.1,1.1,0,2.2,0,3.5c-0.1,2.1-0.2,4.2,0.4,5.9l1.1,2.1l1.6,1.5c1.3,0.7,1.9-1.4,1.8-2.2c0-2-0.1-4.1-0.3-6.1
			c-0.1-1.3-0.5-2.7-0.2-4c0.3-1.4,1.5-2.5,2.4-3.5c0.9-1,2-2.1,2.7-3.2c2.1-3,1-4.4-0.1-5.8l-0.6-0.9c-0.9-1.6-1.4-3.7-1.6-5.5
			c-0.1-1.3-0.1-2.6,0.1-3.9c0.5-2.9,2.6-5.7,1.8-8.7c-0.3-1.2-1.2-2.2-1.9-3.3c-0.7-1.1-1.4-2.1-2.1-3.2c-0.9-1.4-1.8-3-2.1-4.7
			l0-2.2c0.2-1.8,1-3.3,1.8-4.8c1.1-2.1,2.2-4.3,2-7.3c-0.1-2.2-0.9-3.8-1.7-5.2c-0.7-1.3-1.3-2.6-1-3.9c0.4-1.9,1.9-3.6,1.7-5.7
			c-0.1-0.9-0.6-1.7-1-2.5c-1.4-2.9-3.3-6.9-2.5-10c0.9-3.3,4.1-5,5.6-5c1.4,0,2.8,1.4,5.2,3.7c1.7,1.7,3.7,3.7,5.3,4.4l1.8,0.3
			c0.9,0,1.8-0.2,2.6-0.3l2.3-0.3l1.5,0.3c3.3,1.5,7.4,8.6,8,10c0.5,1.2,1.4,2.6,2.5,3.4l0.8,0.3l0.6-0.3c1.5-1,2.5-2.7,4.6-2.7h0.2
			c1.9,0.1,3.4,1.6,4.7,2.8l1.5,1.3l1.7,0.2c1.2,0,2.7,0,3.9,1c1.7,1.5,5.1,8.3,5.6,10.5c0.8,3.7,2.2,3.7,2.7,3.7l1-0.2
			c0.8-0.2,1.6-0.6,2.4-0.9c1.3-0.5,2.5-1,3.6-1c0.8,0,1.4,0.2,2,0.6c1.4,1,3.2,4.6,5.6,9.9l0.5,1c0.9,1.9,3.4,4.2,5.5,4.5l1.3,0.1
			c1.7,0.2,3.3,0.3,5,3.2c0.2,0.4,0.6,1.1,1,1.9c1.2,2.3,3.1,6.2,5,8.1c1,1,2.4,1.8,4,2.8c0.7,0.5,1.5,0.9,2.3,1.4l0.4,0.3
			c1.4,0.9,2.9,1.9,3.9,3.2c0.5,0.7,0.9,1.4,1.2,2.2c0.3,1-0.1,2-0.2,3c-0.2,2.4,1.3,5.1,2.4,7.2c0.5,0.9,6.1,8.3,6.4,9.1
			c0.8,1.8,1.3,2.8,2.8,3.6c2.7,1.4,5.6,1.6,7.8,5.1l1,1.7c0.5,0.9,1.1,1.9,1.7,2.7l1.1,1c1.2,0.1,0.1-3.2,0-3.6
			C185.7,271.4,185.5,270.3,185.6,269.5"/>
	</g>
</g>
</svg>
